<?xml version="1.0" encoding="UTF-8" standalone="no"?>
<!-- Created with Inkscape (http://www.inkscape.org/) -->

<svg
   version="1.1"
   id="svg1"
   width="390.01874"
   height="387.27008"
   viewBox="0 0 390.01874 387.27008"
   sodipodi:docname="MSC_Logo_20250703-2055_Blue.svg"
   inkscape:version="1.4.2 (ebf0e940, 2025-05-08)"
   xmlns:inkscape="http://www.inkscape.org/namespaces/inkscape"
   xmlns:sodipodi="http://sodipodi.sourceforge.net/DTD/sodipodi-0.dtd"
   xmlns="http://www.w3.org/2000/svg"
   xmlns:svg="http://www.w3.org/2000/svg">
  <defs
     id="defs1" />
  <sodipodi:namedview
     id="namedview1"
     pagecolor="#ffffff"
     bordercolor="#000000"
     borderopacity="0.25"
     inkscape:showpageshadow="2"
     inkscape:pageopacity="0.0"
     inkscape:pagecheckerboard="0"
     inkscape:deskcolor="#d1d1d1"
     inkscape:zoom="1.964699"
     inkscape:cx="142.51547"
     inkscape:cy="206.64743"
     inkscape:window-width="1640"
     inkscape:window-height="1137"
     inkscape:window-x="193"
     inkscape:window-y="705"
     inkscape:window-maximized="0"
     inkscape:current-layer="g1" />
  <g
     inkscape:groupmode="layer"
     inkscape:label="Image"
     id="g1"
     transform="translate(-99.094434,-51.179169)">
    <path
       style="fill:#2f3b4e;fill-opacity:1;stroke:none;stroke-width:0.801;stroke-dasharray:none"
       d="m 282.91413,400.63788 c -30.42209,-2.20972 -61.94586,-15.13603 -73.53581,-24.9309 -2.14388,-1.81183 -0.8893,-3.45535 7.52621,-9.87352 48.13141,-37.61077 6.17972,-4.40168 63.97599,-49.17361 14.11064,-10.93081 19.43713,-14.86086 23.22418,-17.1355 7.9876,-4.79766 23.79174,-11.51234 33.63501,-14.29045 16.67985,-5.39037 33.95758,-7.87077 51.25335,-10.1613 7.96042,-1.06501 32.99111,-2.02968 45.38057,-2.02927 l 12.33344,4.1e-4 c -0.54395,4.54953 -1.54167,10.0103 -4.09153,17.96527 -6.87163,21.4378 -15.23483,37.35666 -33.90355,59.26169 -32.92048,35.0348 -78.1547,53.82776 -125.79786,50.36718 z M 137.99652,243.31944 c -0.3957,-1.03118 1.15537,-15.26427 2.51962,-23.12077 3.0969,-17.83459 9.11591,-35.99594 15.87495,-47.9 3.98218,-7.01346 6.32717,-10.86627 9.09855,-14.9489 62.53667,-92.125221 202.26056,-89.392997 260.85774,5.10093 14.46812,23.33133 25.65737,60.86721 23.70465,79.52049 l -0.19562,1.86862 -155.77854,0.13437 c -137.03282,0.1182 -155.81497,0.0394 -156.08135,-0.65474 z"
       id="path1"
       sodipodi:nodetypes="sssssssscscssssssscss" />
  </g>
</svg>
