<?xml version="1.0" encoding="UTF-8" standalone="no"?>
<svg
   version="1.1"
   width="707.84924"
   height="202.99312"
   viewBox="0 0 707.84924 202.99312"
   id="svg6"
   sodipodi:docname="MSC_Wordmark_20250703-2119_Grey.svg"
   inkscape:version="1.4.2 (ebf0e940, 2025-05-08)"
   xmlns:inkscape="http://www.inkscape.org/namespaces/inkscape"
   xmlns:sodipodi="http://sodipodi.sourceforge.net/DTD/sodipodi-0.dtd"
   xmlns="http://www.w3.org/2000/svg"
   xmlns:svg="http://www.w3.org/2000/svg">
  <sodipodi:namedview
     id="namedview6"
     pagecolor="#ffffff"
     bordercolor="#000000"
     borderopacity="0.25"
     inkscape:showpageshadow="2"
     inkscape:pageopacity="0.0"
     inkscape:pagecheckerboard="0"
     inkscape:deskcolor="#d1d1d1"
     inkscape:zoom="0.71695899"
     inkscape:cx="154.12318"
     inkscape:cy="330.56284"
     inkscape:window-width="1272"
     inkscape:window-height="993"
     inkscape:window-x="87"
     inkscape:window-y="751"
     inkscape:window-maximized="0"
     inkscape:current-layer="svg6" />
  <defs
     id="defs2">
    <clipPath
       id="clip_0">
      <path
         transform="matrix(1,0,0,-1,0,595)"
         d="M 41,84 H 800.84 V 512 H 41 Z"
         id="path1" />
    </clipPath>
    <clipPath
       id="clip_1">
      <path
         transform="matrix(1,0,0,-1,0,595)"
         d="M 41,84 H 801 V 512 H 41 Z"
         id="path2" />
    </clipPath>
  </defs>
  <path
     style="font-size:57.6516px;font-family:Castoro;-inkscape-font-specification:'Castoro, Normal';text-align:center;letter-spacing:1.99871px;text-anchor:middle;display:inline;fill:#808080;fill-opacity:1;stroke:none;stroke-width:0.616742;stroke-linecap:round;stroke-opacity:1"
     d="m 16.450203,202.93549 q -0.05765,0 -1.902503,-0.1153 -1.7872,-0.0576 -4.150915,-0.46121 -1.9601546,-0.34591 -3.5743994,-0.46121 -1.5565932,-0.17296 -1.9025028,-0.17296 -0.057652,-4.78508 -0.5188644,-11.58797 0.4612128,-0.0576 0.9224256,-0.0576 0.5188644,0 0.9224256,0 1.0953804,5.07334 3.6320508,7.84062 2.5943216,2.76727 6.8028886,2.76727 3.747354,0 6.11107,-2.0178 2.363715,-2.07546 2.363715,-5.41925 0,-2.53667 -1.325986,-4.15092 -1.268336,-1.61424 -3.401445,-2.70962 -2.075457,-1.15304 -4.439173,-2.13311 -2.767277,-1.21069 -5.303947,-2.53667 -2.479019,-1.38364 -4.0932638,-3.51675 -1.6142448,-2.13311 -1.6142448,-5.53456 0,-3.63205 1.7871996,-6.22637 1.8448512,-2.59432 4.900386,-3.92031 3.055535,-1.38364 6.745237,-1.38364 1.153032,0 2.363716,0.11531 1.268335,0.1153 2.594322,0.34591 1.671896,0.2306 2.53667,0.28826 0.922426,0.0576 1.210684,0.0576 0.172955,0 0.634167,0 0.461213,-0.0576 0.749471,-0.11531 0.115303,2.53667 0.230607,5.2463 0.115303,2.70962 0.345909,5.64986 -1.153032,0.17295 -1.902503,0.1153 -1.325986,-5.01569 -3.286141,-7.20645 -1.960154,-2.24841 -5.592205,-2.24841 -3.170838,0 -5.41925,1.72955 -2.248413,1.67189 -2.248413,5.01568 0,1.7872 0.807123,3.17084 0.864774,1.38364 2.824928,2.65198 1.960154,1.26833 5.41925,2.70962 1.902503,0.80712 3.805006,1.7872 1.960154,0.98008 3.574399,2.36372 1.614245,1.32598 2.594322,3.28614 0.980077,1.9025 0.980077,4.55447 0,3.92031 -1.960154,6.68759 -1.960154,2.70962 -5.188644,4.15091 -3.170838,1.44129 -7.033495,1.44129 z m 15.777515,-0.74947 q -0.115303,-0.92242 0,-1.84485 1.614245,-0.17295 2.594322,-0.40356 0.980078,-0.23061 1.671897,-0.80712 0.691819,-0.63417 1.325987,-1.84485 0.634167,-1.26834 1.498941,-3.51675 L 51.771611,161.8299 q 0.634167,-0.2306 1.498941,-0.34591 0.922426,-0.1153 1.556594,-0.1153 l 12.395094,32.91906 q 0.807122,2.07546 1.325986,3.28615 0.518865,1.15303 1.153032,1.67189 0.634168,0.51887 1.614245,0.74947 0.980077,0.17296 2.709625,0.34591 0.115304,0.92243 0,1.84485 -2.017806,0 -4.150915,-0.0577 -2.133109,-0.0576 -4.266218,-0.0576 -2.190761,0 -4.439173,0.0576 -2.190761,0.0577 -4.381522,0.0577 -0.172955,-0.86477 0,-1.84485 2.824928,-0.28826 3.920309,-0.51886 1.09538,-0.28826 1.09538,-1.38364 0,-0.46121 -0.172955,-1.03773 -0.172954,-0.57651 -0.461212,-1.44129 L 57.88268,187.0813 H 44.91107 l -2.88258,7.95593 q -0.403561,1.09538 -0.634167,1.84485 -0.172955,0.69182 -0.172955,1.26833 0,1.26834 1.153032,1.61425 1.210684,0.28825 3.920309,0.57651 0.115303,0.98008 0,1.84485 -1.960155,0 -3.862657,-0.0577 -1.902503,-0.0576 -3.862658,-0.0576 -1.614244,0 -3.113186,0.0576 -1.498942,0.0577 -3.22849,0.0577 z M 45.775844,184.65994 H 57.017906 L 51.36805,169.32461 Z m 30.882211,17.52608 q -0.115303,-0.86477 0,-1.84485 2.767277,-0.28826 3.977961,-0.51886 1.210683,-0.28826 1.498941,-1.15303 0.288258,-0.86478 0.288258,-2.94024 v -26.80799 q 0,-2.42137 -0.288258,-3.4591 -0.288258,-1.03772 -1.498941,-1.32598 -1.153032,-0.34591 -3.805006,-0.57652 -0.115303,-0.86477 0,-1.84485 1.383638,0 2.306064,0.0577 0.980077,0 2.017806,0 1.037729,0 2.594322,0.0576 1.614245,0 4.266218,0 3.286142,0 6.687586,0 3.401444,-0.0576 6.284024,-0.0576 2.94023,0 4.72743,0 1.84485,-0.0577 1.96016,-0.0577 0.28825,2.19076 0.63416,4.55448 0.34591,2.36371 0.74947,5.01569 -0.46121,0.0576 -0.98007,0.0576 -0.46122,0 -0.92243,-0.0576 -1.49894,-3.86266 -3.51675,-5.41925 -2.07545,-1.6719 -6.514627,-1.6719 h -8.359482 v 16.3154 h 3.805006 q 2.767277,0 4.208567,-0.34591 1.44129,-0.40356 2.133109,-1.67189 0.691819,-1.32599 1.095377,-4.15092 1.03773,-0.17295 1.96016,0 -0.0577,2.42137 -0.11531,3.86266 0,1.38364 0,2.19076 0,0.80712 0,1.49894 0,0.63417 0,1.44129 0,0.80712 0,2.24841 0.0577,1.44129 0.11531,3.92031 -0.86478,0.17296 -1.96016,0 -0.345906,-3.05553 -1.037726,-4.38152 -0.691819,-1.38364 -2.075457,-1.72955 -1.325987,-0.34591 -3.805006,-0.34591 h -4.32387 v 11.93388 q 0,1.7872 0.115303,2.76728 0.115304,0.98008 0.69182,1.55659 0.576516,0.51887 1.729548,0.69182 1.210683,0.17296 3.459096,0.34591 0.172954,0.92243 0,1.84485 -1.210684,0 -2.940232,-0.0577 -1.729548,0 -3.459096,0 -1.671896,-0.0576 -2.824928,-0.0576 -1.095381,0 -2.709626,0.0576 -1.614244,0 -3.286141,0 -1.614245,0.0577 -2.88258,0.0577 z m 37.166205,0 q -0.11531,-0.86477 0,-1.84485 2.70962,-0.28826 3.86266,-0.51886 1.15303,-0.28826 1.44129,-1.15303 0.28825,-0.92243 0.28825,-2.94024 v -26.80799 q 0,-2.42137 -0.28825,-3.4591 -0.28826,-1.03772 -1.49895,-1.32598 -1.15303,-0.34591 -3.805,-0.57652 -0.11531,-0.86477 0,-1.84485 1.49894,0 2.59432,0.0577 1.15303,0 2.30606,0 1.15304,0 2.76728,0.0576 1.61425,0 4.09326,0 4.55448,0 8.53244,0 3.97796,-0.0576 6.62994,-0.0576 2.65197,-0.0577 3.11318,-0.0577 0.23061,2.13311 0.51887,4.38152 0.34591,2.24841 0.74947,4.78509 -0.98008,0.1153 -1.90251,0 -0.69182,-1.72955 -1.61424,-3.05554 -0.92243,-1.32599 -1.9025,-2.01781 -1.09538,-0.80712 -2.65198,-1.21068 -1.49894,-0.40356 -3.74735,-0.40356 h -7.55236 v 15.73889 h 3.17084 q 2.76727,0 4.20856,-0.34591 1.44129,-0.40356 2.13311,-1.6719 0.69182,-1.32599 1.09538,-4.15091 1.03773,-0.17296 1.96016,0 -0.0576,3.45909 -0.11531,5.07334 0,1.61424 0,2.42136 0,0.92243 0,2.82493 0.0577,1.84485 0.11531,4.78508 -0.86478,0.17296 -1.96016,0 -0.34591,-3.05553 -1.03773,-4.38152 -0.69181,-1.32598 -2.07545,-1.67189 -1.32599,-0.34591 -3.80501,-0.34591 h -3.6897 v 12.51039 q 0,1.96016 0,3.17084 0.0577,1.15303 0.1153,1.49894 h 7.89827 q 2.88258,0 4.61213,-0.46121 1.7872,-0.51886 2.94023,-1.49894 0.80712,-0.63417 1.9025,-2.19076 1.09538,-1.61425 2.07546,-3.6897 0.92243,-0.11531 1.7872,0 -0.57651,3.22849 -0.98008,5.82281 -0.40356,2.59432 -0.69182,4.49682 -2.59432,0 -5.64985,0 -3.05554,0 -6.11107,0 -3.05554,-0.0576 -5.59221,-0.0576 -2.47902,0 -3.97796,0 -2.70962,0 -4.43917,0.0576 -1.6719,0 -2.99788,0 -1.26834,0.0577 -2.82493,0.0577 z m 47.54344,0 q -0.1153,-0.86477 0,-1.84485 2.88258,-0.28826 4.09327,-0.51886 1.21068,-0.28826 1.49894,-1.15303 0.28826,-0.86478 0.28826,-2.94024 v -31.47777 h -4.15092 q -3.05553,0 -4.84273,0.86478 -1.72955,0.80712 -2.82493,2.47901 -1.03773,1.6719 -2.07546,4.26622 -0.92242,0.11531 -1.84485,0 0.34591,-2.76727 0.63417,-5.30394 0.34591,-2.53668 0.57651,-4.90039 3.74736,0.23061 8.30183,0.28826 4.55448,0 9.45487,0 4.95803,0 9.51251,0 4.61213,-0.0576 8.30183,-0.28826 0.23061,2.30606 0.46121,4.90039 0.23061,2.53667 0.57652,5.30394 -0.98008,0.11531 -1.9025,0 -1.09538,-2.65197 -2.19076,-4.32387 -1.09538,-1.67189 -2.82493,-2.47902 -1.6719,-0.80712 -4.72743,-0.80712 h -4.09327 v 30.7283 q 0,1.7872 0.11531,2.82493 0.1153,1.03773 0.63416,1.49894 0.57652,0.46122 1.7872,0.69182 1.21069,0.17296 3.3438,0.34591 0.17295,0.92243 0,1.84485 -1.21069,0 -2.94024,-0.0577 -1.67189,0 -3.34379,0 -1.67189,-0.0576 -2.82493,-0.0576 -1.09538,0 -2.76727,0.0576 -1.61425,0 -3.3438,0 -1.67189,0.0577 -2.88258,0.0577 z m 60.16919,-32.34254 -8.47478,15.10472 v 10.03137 q 0,1.7872 0.1153,2.82493 0.1153,1.03773 0.63417,1.49894 0.51886,0.46122 1.6719,0.69182 1.15303,0.17296 3.28614,0.34591 0.17295,0.92243 0,1.84485 -1.21069,0 -2.88258,-0.0577 -1.6719,0 -3.3438,0 -1.61424,-0.0576 -2.70962,-0.0576 -1.09538,0 -2.70963,0.0576 -1.61424,0 -3.28614,0 -1.67189,0.0577 -2.88258,0.0577 -0.1153,-0.86477 0,-1.84485 2.76728,-0.28826 3.97796,-0.51886 1.21069,-0.28826 1.49894,-1.15303 0.28826,-0.92243 0.28826,-2.94024 v -10.20433 l -8.76304,-16.02714 q -1.03773,-1.96016 -1.72955,-3.05554 -0.69182,-1.15303 -1.38364,-1.67189 -0.63417,-0.57652 -1.61424,-0.80713 -0.92243,-0.2306 -2.59432,-0.40356 -0.11531,-0.92242 0,-1.84485 2.07545,0 4.26621,0.0577 2.19076,0.0576 4.32387,0.0576 1.84486,0 4.09327,-0.0576 2.24841,-0.0577 4.32387,-0.0577 0.1153,0.86477 0,1.84485 -2.47902,0.23061 -3.51675,0.57652 -1.03773,0.28826 -1.03773,1.09538 0,0.40356 0.28826,1.09538 0.34591,0.63417 0.86477,1.61424 l 7.55236,14.12465 7.61001,-14.06699 q 1.03773,-1.90251 1.03773,-2.59433 0,-0.86477 -1.21068,-1.15303 -1.15303,-0.34591 -4.03561,-0.69182 -0.11531,-0.98008 0,-1.84485 0.92242,0 2.36371,0.0577 1.44129,0 2.82493,0.0576 1.44129,0 2.36372,0 1.84485,0 3.40144,-0.0576 1.61425,-0.0577 3.40145,-0.0577 0.1153,0.92243 0,1.84485 -1.6719,0.17296 -2.70963,0.40356 -1.03773,0.23061 -1.7872,0.86478 -0.74947,0.57651 -1.55659,1.7872 -0.80712,1.15303 -1.96016,3.22849 z m 60.72659,20.35101 q -0.69182,5.07334 -1.03773,10.31964 -3.17084,0.92242 -6.45698,1.67189 -3.28614,0.74947 -7.0335,0.74947 -6.39933,0 -11.12676,-2.53667 -4.66978,-2.53667 -7.2641,-7.09114 -2.59432,-4.61213 -2.59432,-10.8385 0,-6.28403 2.59432,-11.06911 2.59432,-4.84273 7.32176,-7.55236 4.72743,-2.70963 11.12675,-2.70963 2.36372,0 4.15092,0.28826 1.7872,0.28826 4.32387,0.86478 1.15303,0.2306 2.01781,0.46121 0.86477,0.23061 1.78719,0.23061 0.28826,0 0.63417,0 0.34591,-0.0577 0.57652,-0.11531 0.1153,2.53667 0.2306,5.2463 0.11531,2.70962 0.34591,5.64986 -1.15303,0.17295 -1.96015,0.1153 -2.24841,-10.43494 -11.81858,-10.43494 -3.86266,0 -6.57228,1.55659 -2.70963,1.49894 -4.38152,4.15092 -1.6719,2.59432 -2.42137,5.88046 -0.74947,3.28614 -0.74947,6.86054 0,5.07334 1.49894,9.33956 1.49894,4.26622 4.72743,6.80289 3.22849,2.53667 8.30183,2.53667 4.78509,0 7.61001,-2.53667 2.88258,-2.53667 4.15092,-7.89827 0.46121,0 0.92243,0 0.51886,0 1.09538,0.0576 z m 48.52359,-8.47478 q 0,6.22637 -2.53668,11.01145 -2.53667,4.78508 -7.14879,7.55236 -4.61213,2.70963 -10.89616,2.70963 -6.22637,0 -10.66554,-2.65198 -4.43918,-2.65197 -6.86054,-7.32175 -2.36372,-4.66978 -2.36372,-10.60789 0,-6.16873 2.53667,-10.95381 2.53667,-4.84273 7.1488,-7.55236 4.66978,-2.76728 10.89615,-2.76728 6.16872,0 10.6079,2.65198 4.43917,2.65197 6.86054,7.32175 2.42137,4.61213 2.42137,10.6079 z m -7.1488,0.57651 q 0,-3.51675 -0.69182,-6.86054 -0.69182,-3.34379 -2.24841,-6.05342 -1.49895,-2.70962 -3.97797,-4.26621 -2.47901,-1.61425 -6.05341,-1.61425 -3.63205,0 -6.16872,1.61425 -2.47902,1.61424 -4.03562,4.26621 -1.49894,2.65198 -2.24841,5.93812 -0.69182,3.28614 -0.69182,6.68758 0,3.3438 0.69182,6.68759 0.74947,3.28614 2.30607,5.99577 1.55659,2.70962 4.09326,4.38152 2.59432,1.61424 6.22637,1.61424 3.5744,0 5.99577,-1.55659 2.47902,-1.55659 3.97796,-4.15092 1.49894,-2.65197 2.13311,-5.93811 0.69182,-3.28614 0.69182,-6.74524 z M 371.47,202.53193 345.81503,168.8634 v 24.67488 q 0,2.19076 0.11531,3.40145 0.1153,1.15303 0.69182,1.7872 0.57651,0.57651 1.7872,0.98007 1.21068,0.40357 3.45909,0.63417 0.11531,0.92243 0,1.84485 -1.72955,0 -3.86266,-0.0577 -2.07545,-0.0576 -3.51674,-0.0576 -1.44129,0 -3.5744,0.0576 -2.07546,0.0577 -3.74736,0.0577 -0.17295,-0.86477 0,-1.84485 2.07546,-0.28826 3.22849,-0.51886 1.15304,-0.28826 1.6719,-0.80712 0.51886,-0.57652 0.63417,-1.6719 0.17295,-1.09538 0.17295,-3.05554 V 170.6506 q 0,-2.30607 -0.17295,-3.63205 -0.11531,-1.32599 -0.74947,-1.96016 -0.57652,-0.69182 -1.84485,-0.98007 -1.21069,-0.34591 -3.40145,-0.57652 -0.0576,-0.86477 0,-1.7872 1.7872,0 3.80501,0.0577 2.0178,0.0576 4.03561,0.0576 0.28826,0 1.55659,0 1.32599,0 2.30607,-0.0576 l 23.40655,30.78596 v -22.13822 q 0,-2.19076 -0.11531,-3.40144 -0.0577,-1.21069 -0.69182,-1.7872 -1.21068,-1.26834 -5.82281,-1.61425 -0.17295,-0.98007 0,-1.84485 1.09538,0 2.59432,0.0576 1.5566,0 2.99789,0.0577 1.44129,0 2.36371,0 1.44129,0 3.5744,-0.0577 2.13311,-0.0576 3.80501,-0.0576 0.1153,0.86478 0,1.7872 -2.76728,0.34591 -3.97796,0.80712 -1.21069,0.40357 -1.49894,1.5566 -0.28826,1.15303 -0.28826,3.74735 v 32.57316 q -0.57652,0.1153 -1.5566,0.17295 -0.98007,0.1153 -1.72954,0.1153 z m 26.67356,0.40356 q -0.0576,0 -1.9025,-0.1153 -1.7872,-0.0576 -4.15092,-0.46121 -1.96015,-0.34591 -3.5744,-0.46121 -1.55659,-0.17296 -1.9025,-0.17296 -0.0577,-4.78508 -0.51886,-11.58797 0.46121,-0.0576 0.92242,-0.0576 0.51887,0 0.92243,0 1.09538,5.07334 3.63205,7.84062 2.59432,2.76727 6.80289,2.76727 3.74735,0 6.11107,-2.0178 2.36371,-2.07546 2.36371,-5.41925 0,-2.53667 -1.32598,-4.15092 -1.26834,-1.61424 -3.40145,-2.70962 -2.07546,-1.15304 -4.43917,-2.13311 -2.76728,-1.21069 -5.30395,-2.53667 -2.47902,-1.38364 -4.09326,-3.51675 -1.61425,-2.13311 -1.61425,-5.53456 0,-3.63205 1.7872,-6.22637 1.84485,-2.59432 4.90039,-3.92031 3.05553,-1.38364 6.74524,-1.38364 1.15303,0 2.36371,0.11531 1.26834,0.1153 2.59432,0.34591 1.6719,0.2306 2.53667,0.28826 0.92243,0.0576 1.21069,0.0576 0.17295,0 0.63417,0 0.46121,-0.0576 0.74947,-0.11531 0.1153,2.53667 0.2306,5.2463 0.11531,2.70962 0.34591,5.64986 -1.15303,0.17295 -1.9025,0.1153 -1.32599,-5.01569 -3.28614,-7.20645 -1.96016,-2.24841 -5.59221,-2.24841 -3.17083,0 -5.41925,1.72955 -2.24841,1.67189 -2.24841,5.01568 0,1.7872 0.80712,3.17084 0.86478,1.38364 2.82493,2.65198 1.96016,1.26833 5.41925,2.70962 1.9025,0.80712 3.80501,1.7872 1.96015,0.98008 3.5744,2.36372 1.61424,1.32598 2.59432,3.28614 0.98008,1.9025 0.98008,4.55447 0,3.92031 -1.96016,6.68759 -1.96015,2.70962 -5.18864,4.15091 -3.17084,1.44129 -7.0335,1.44129 z m 19.58249,-41.22089 q 1.15304,0 2.76728,0.0577 1.6719,0 3.28614,0.0576 1.6719,0 2.76728,0 1.09538,0 2.70962,0 1.6719,-0.0576 3.3438,-0.0576 1.67189,-0.0577 2.82493,-0.0577 0.17295,0.86477 0,1.7872 -2.65198,0.23061 -3.86266,0.51886 -1.21068,0.28826 -1.49894,1.15304 -0.28826,0.86477 -0.28826,2.94023 V 186.966 q 0,6.45698 2.76728,9.62782 2.82492,3.11318 8.18652,3.11318 5.64986,0 8.53244,-3.51674 2.88258,-3.51675 2.88258,-10.89615 v -15.79654 q 0,-2.01781 -0.17296,-3.11319 -0.1153,-1.15303 -0.74947,-1.6719 -0.57651,-0.51886 -1.7872,-0.69182 -1.21068,-0.2306 -3.40144,-0.46121 -0.17295,-0.86477 0,-1.7872 1.55659,0 3.74735,0.0576 2.19076,0.0577 3.51675,0.0577 1.44129,0 3.5744,-0.0577 2.19076,-0.0576 3.80501,-0.0576 0.17295,0.86478 0,1.7872 -2.65198,0.28826 -3.86266,0.57652 -1.21068,0.28826 -1.55659,1.26833 -0.28826,0.98008 -0.28826,3.3438 v 17.75669 q 0,7.66766 -3.97796,11.99153 -3.97796,4.26622 -12.04919,4.26622 -4.61212,0 -8.12887,-1.49894 -3.4591,-1.49894 -5.41925,-4.61213 -1.96016,-3.17084 -1.96016,-7.95592 V 168.8634 q 0,-2.42137 -0.28825,-3.4591 -0.28826,-1.03773 -1.49895,-1.32598 -1.21068,-0.34591 -3.92031,-0.57652 -0.17295,-0.86477 0,-1.7872 z m 47.31288,40.47142 q -0.1153,-0.86477 0,-1.84485 2.70963,-0.28826 3.86266,-0.51886 1.15303,-0.28826 1.44129,-1.15303 0.28826,-0.92243 0.28826,-2.94024 v -26.80799 q 0,-2.42137 -0.28826,-3.4591 -0.28826,-1.03772 -1.49894,-1.32598 -1.15303,-0.34591 -3.80501,-0.57652 -0.1153,-0.86477 0,-1.84485 1.21069,0 2.82493,0.0577 1.6719,0 3.28614,0.0576 1.61425,0 2.65198,0 1.09538,0 2.70962,0 1.6719,-0.0576 3.3438,-0.0576 1.72954,-0.0577 2.82492,-0.0577 0.17296,0.86477 0,1.84485 -2.70962,0.23061 -3.92031,0.51887 -1.21068,0.28825 -1.49894,1.15303 -0.28825,0.86477 -0.28825,2.94023 v 26.80799 q 0,1.96016 0,3.17084 0.0576,1.15303 0.1153,1.55659 h 8.18653 q 4.78508,0 7.09114,-2.1331 1.9025,-1.84486 3.97796,-6.45698 0.92243,-0.17296 1.7872,0 -0.69182,3.51674 -1.15303,6.34167 -0.40356,2.76728 -0.69182,4.66978 -5.5922,0 -11.18441,0 -5.53455,-0.0576 -11.12676,-0.0576 -1.09538,0 -2.76727,0.0576 -1.6719,0 -3.3438,0 -1.67189,0.0577 -2.82493,0.0577 z m 41.72065,0 q -0.1153,-0.86477 0,-1.84485 2.88258,-0.28826 4.09326,-0.51886 1.21069,-0.28826 1.49895,-1.15303 0.28825,-0.86478 0.28825,-2.94024 v -31.47777 h -4.15091 q -3.05554,0 -4.84274,0.86478 -1.72954,0.80712 -2.82492,2.47901 -1.03773,1.6719 -2.07546,4.26622 -0.92243,0.11531 -1.84485,0 0.34591,-2.76727 0.63416,-5.30394 0.34591,-2.53668 0.57652,-4.90039 3.74735,0.23061 8.30183,0.28826 4.55448,0 9.45486,0 4.95804,0 9.51252,0 4.61213,-0.0576 8.30183,-0.28826 0.2306,2.30606 0.46121,4.90039 0.23061,2.53667 0.57652,5.30394 -0.98008,0.11531 -1.90251,0 -1.09538,-2.65197 -2.19076,-4.32387 -1.09538,-1.67189 -2.82493,-2.47902 -1.67189,-0.80712 -4.72743,-0.80712 h -4.09326 v 30.7283 q 0,1.7872 0.1153,2.82493 0.11531,1.03773 0.63417,1.49894 0.57652,0.46122 1.7872,0.69182 1.21068,0.17296 3.34379,0.34591 0.17296,0.92243 0,1.84485 -1.21068,0 -2.94023,-0.0577 -1.6719,0 -3.34379,0 -1.6719,-0.0576 -2.82493,-0.0576 -1.09538,0 -2.76728,0.0576 -1.61424,0 -3.34379,0 -1.6719,0.0577 -2.88258,0.0577 z m 25.05936,0 q -0.1153,-0.92242 0,-1.84485 1.61425,-0.17295 2.59433,-0.40356 0.98007,-0.23061 1.67189,-0.80712 0.69182,-0.63417 1.32599,-1.84485 0.63417,-1.26834 1.49894,-3.51675 l 12.45275,-31.93899 q 0.63416,-0.2306 1.49894,-0.34591 0.92242,-0.1153 1.55659,-0.1153 l 12.39509,32.91906 q 0.80713,2.07546 1.32599,3.28615 0.51887,1.15303 1.15303,1.67189 0.63417,0.51887 1.61425,0.74947 0.98007,0.17296 2.70962,0.34591 0.11531,0.92243 0,1.84485 -2.0178,0 -4.15091,-0.0577 -2.13311,-0.0576 -4.26622,-0.0576 -2.19076,0 -4.43917,0.0576 -2.19076,0.0577 -4.38153,0.0577 -0.17295,-0.86477 0,-1.84485 2.82493,-0.28826 3.92031,-0.51886 1.09538,-0.28826 1.09538,-1.38364 0,-0.46121 -0.17295,-1.03773 -0.17296,-0.57651 -0.46121,-1.44129 l -3.28614,-8.87835 H 544.5023 l -2.88258,7.95593 q -0.40357,1.09538 -0.63417,1.84485 -0.17296,0.69182 -0.17296,1.26833 0,1.26834 1.15303,1.61425 1.21069,0.28825 3.92031,0.57651 0.11531,0.98008 0,1.84485 -1.96015,0 -3.86265,-0.0577 -1.90251,-0.0576 -3.86266,-0.0576 -1.61425,0 -3.11319,0.0576 -1.49894,0.0577 -3.22849,0.0577 z m 13.54813,-17.52608 h 11.24206 l -5.64986,-15.33533 z m 64.95434,17.87199 -25.65497,-33.66853 v 24.67488 q 0,2.19076 0.11531,3.40145 0.1153,1.15303 0.69182,1.7872 0.57651,0.57651 1.7872,0.98007 1.21068,0.40357 3.45909,0.63417 0.11531,0.92243 0,1.84485 -1.72955,0 -3.86266,-0.0577 -2.07545,-0.0576 -3.51674,-0.0576 -1.44129,0 -3.5744,0.0576 -2.07546,0.0577 -3.74736,0.0577 -0.17295,-0.86477 0,-1.84485 2.07546,-0.28826 3.22849,-0.51886 1.15304,-0.28826 1.6719,-0.80712 0.51886,-0.57652 0.63417,-1.6719 0.17295,-1.09538 0.17295,-3.05554 V 170.6506 q 0,-2.30607 -0.17295,-3.63205 -0.11531,-1.32599 -0.74947,-1.96016 -0.57652,-0.69182 -1.84485,-0.98007 -1.21069,-0.34591 -3.40145,-0.57652 -0.0577,-0.86477 0,-1.7872 1.7872,0 3.80501,0.0577 2.0178,0.0576 4.03561,0.0576 0.28826,0 1.55659,0 1.32599,0 2.30607,-0.0576 l 23.40655,30.78596 v -22.13822 q 0,-2.19076 -0.11531,-3.40144 -0.0576,-1.21069 -0.69182,-1.7872 -1.21068,-1.26834 -5.82281,-1.61425 -0.17295,-0.98007 0,-1.84485 1.09538,0 2.59432,0.0576 1.5566,0 2.99789,0.0577 1.44129,0 2.36371,0 1.44129,0 3.5744,-0.0577 2.13311,-0.0576 3.80501,-0.0576 0.1153,0.86478 0,1.7872 -2.76728,0.34591 -3.97796,0.80712 -1.21069,0.40357 -1.49894,1.5566 -0.28826,1.15303 -0.28826,3.74735 v 32.57316 q -0.57652,0.1153 -1.5566,0.17295 -0.98007,0.1153 -1.72954,0.1153 z m 50.31069,-12.33744 q -0.69182,5.07334 -1.03773,10.31964 -3.17084,0.92242 -6.45698,1.67189 -3.28614,0.74947 -7.0335,0.74947 -6.39932,0 -11.12675,-2.53667 -4.66978,-2.53667 -7.26411,-7.09114 -2.59432,-4.61213 -2.59432,-10.8385 0,-6.28403 2.59432,-11.06911 2.59433,-4.84273 7.32176,-7.55236 4.72743,-2.70963 11.12676,-2.70963 2.36371,0 4.15091,0.28826 1.7872,0.28826 4.32387,0.86478 1.15303,0.2306 2.01781,0.46121 0.86477,0.23061 1.7872,0.23061 0.28825,0 0.63416,0 0.34591,-0.0577 0.57652,-0.11531 0.1153,2.53667 0.23061,5.2463 0.1153,2.70962 0.34591,5.64986 -1.15304,0.17295 -1.96016,0.1153 -2.24841,-10.43494 -11.81858,-10.43494 -3.86265,0 -6.57228,1.55659 -2.70962,1.49894 -4.38152,4.15092 -1.6719,2.59432 -2.42137,5.88046 -0.74947,3.28614 -0.74947,6.86054 0,5.07334 1.49894,9.33956 1.49895,4.26622 4.72743,6.80289 3.22849,2.53667 8.30184,2.53667 4.78508,0 7.61001,-2.53667 2.88258,-2.53667 4.15091,-7.89827 0.46121,0 0.92243,0 0.51886,0 1.09538,0.0576 z m 34.6872,-20.35101 -8.47478,15.10472 v 10.03137 q 0,1.7872 0.1153,2.82493 0.1153,1.03773 0.63417,1.49894 0.51886,0.46122 1.67189,0.69182 1.15304,0.17296 3.28615,0.34591 0.17295,0.92243 0,1.84485 -1.21069,0 -2.88258,-0.0577 -1.6719,0 -3.3438,0 -1.61424,-0.0576 -2.70962,-0.0576 -1.09538,0 -2.70963,0.0576 -1.61424,0 -3.28614,0 -1.67189,0.0577 -2.88258,0.0577 -0.1153,-0.86477 0,-1.84485 2.76728,-0.28826 3.97796,-0.51886 1.21069,-0.28826 1.49894,-1.15303 0.28826,-0.92243 0.28826,-2.94024 v -10.20433 l -8.76304,-16.02714 q -1.03773,-1.96016 -1.72955,-3.05554 -0.69182,-1.15303 -1.38364,-1.67189 -0.63417,-0.57652 -1.61424,-0.80713 -0.92243,-0.2306 -2.59432,-0.40356 -0.11531,-0.92242 0,-1.84485 2.07545,0 4.26621,0.0577 2.19076,0.0576 4.32387,0.0576 1.84485,0 4.09327,-0.0576 2.24841,-0.0577 4.32387,-0.0577 0.1153,0.86477 0,1.84485 -2.47902,0.23061 -3.51675,0.57652 -1.03773,0.28826 -1.03773,1.09538 0,0.40356 0.28826,1.09538 0.34591,0.63417 0.86477,1.61424 l 7.55236,14.12465 7.61001,-14.06699 q 1.03773,-1.90251 1.03773,-2.59433 0,-0.86477 -1.21068,-1.15303 -1.15303,-0.34591 -4.03561,-0.69182 -0.11531,-0.98008 0,-1.84485 0.92242,0 2.36371,0.0577 1.44129,0 2.82493,0.0576 1.44129,0 2.36372,0 1.84485,0 3.40144,-0.0576 1.61425,-0.0577 3.40145,-0.0577 0.1153,0.92243 0,1.84485 -1.6719,0.17296 -2.70963,0.40356 -1.03773,0.23061 -1.7872,0.86478 -0.74947,0.57651 -1.55659,1.7872 -0.80713,1.15303 -1.96016,3.22849 z"
     id="text1"
     aria-label="SAFETY CONSULTANCY"
     inkscape:label="Safety Consultancy" />
  <path
     id="path4"
     style="opacity:1;font-size:195.43px;font-family:Castoro;-inkscape-font-specification:'Castoro, Normal';text-align:center;letter-spacing:-2.76535px;baseline-shift:baseline;text-anchor:middle;display:inline;overflow:visible;vector-effect:none;fill:#808080;stroke-linecap:round;stroke-linejoin:round;enable-background:accumulate;stop-color:#000000;stop-opacity:1;fill-opacity:1"
     d="M 412.43555 0 C 398.05666 0 385.41569 3.1259717 374.57617 9.3964844 C 363.88365 15.5297 355.57116 24.104807 349.69141 35.060547 C 343.80763 45.895298 340.87305 58.292084 340.87305 72.199219 C 340.87305 85.587175 343.60565 97.593084 349.08789 108.16602 A 0.95009499 0.95009499 0 0 0 349.09375 108.17383 C 354.70998 118.74729 362.69384 127.06646 372.99219 133.07227 C 383.31281 139.09106 395.68934 142.08398 410.0625 142.08398 C 424.56916 142.08398 437.20915 139.02559 447.91992 132.88281 A 0.95009499 0.95009499 0 0 0 447.92773 132.87695 C 458.61751 126.61577 466.92793 118.04579 472.80859 107.2168 C 478.69314 96.380642 481.62695 83.917433 481.62695 69.882812 C 481.62695 56.36425 478.82478 44.353661 473.20508 33.904297 C 467.58865 23.333083 459.60732 15.016602 449.31055 9.0117188 C 438.99147 2.9938273 426.67806 0 412.43555 0 z M 638.6582 0 C 624.27932 0 611.63837 3.1259722 600.79883 9.3964844 C 590.10601 15.529874 581.79189 24.104363 575.91211 35.060547 C 570.02832 45.895298 567.09375 58.292084 567.09375 72.199219 C 567.09375 85.587175 569.8283 97.593084 575.31055 108.16602 A 0.95009499 0.95009499 0 0 0 575.31445 108.17383 C 580.93069 118.74729 588.91455 127.06646 599.21289 133.07227 C 609.53351 139.09106 621.91199 142.08398 636.28516 142.08398 C 650.79182 142.08398 663.4318 139.02559 674.14258 132.88281 A 0.95009499 0.95009499 0 0 0 674.14844 132.87695 C 684.83821 126.61577 693.15059 118.0458 699.03125 107.2168 C 704.9158 96.380642 707.84961 83.917433 707.84961 69.882812 C 707.84961 56.36425 705.04743 44.353661 699.42773 33.904297 C 693.81139 23.333083 685.82998 15.016602 675.5332 9.0117188 C 665.21413 2.9938273 652.90073 0 638.6582 0 z M 185.78516 1.9316406 A 0.95009499 0.95009499 0 0 0 184.85547 2.7011719 C 184.43843 4.8724081 184.43594 6.9996808 184.85742 9.0566406 A 0.95009499 0.95009499 0 0 0 185.71094 9.8125 C 191.88119 10.325129 196.33925 10.975128 198.98438 11.712891 A 0.95009499 0.95009499 0 0 0 199.02344 11.722656 C 201.56395 12.31314 202.89891 13.495442 203.46875 15.498047 C 204.07485 17.628049 204.42188 21.456323 204.42188 26.824219 L 204.42188 93.246094 C 204.42188 104.06327 206.69397 113.1399 211.29297 120.40234 A 0.95009499 0.95009499 0 0 0 211.29688 120.4082 C 215.88064 127.51498 222.24838 132.80111 230.31836 136.21484 A 0.95009499 0.95009499 0 0 0 230.32422 136.2168 C 238.50403 139.62027 247.92842 141.31055 258.57812 141.31055 C 277.20272 141.31055 291.28508 136.48634 300.60547 126.72852 A 0.95009499 0.95009499 0 0 0 300.60938 126.72461 C 309.90035 116.86614 314.51758 103.19907 314.51758 85.910156 L 314.51758 26.4375 C 314.51758 21.220985 314.86504 17.541108 315.45898 15.548828 C 316.14219 13.675596 317.56158 12.508645 320.11133 11.916016 C 322.79954 11.291204 327.20215 10.645633 333.25 10.003906 A 0.95009499 0.95009499 0 0 0 334.08203 9.2382812 C 334.49907 7.067044 334.50156 4.9397723 334.08008 2.8828125 A 0.95009499 0.95009499 0 0 0 333.14844 2.1230469 L 282.9082 2.1230469 A 0.95009499 0.95009499 0 0 0 281.97461 2.8945312 C 281.55757 5.0657683 281.55509 7.1930402 281.97656 9.25 A 0.95009499 0.95009499 0 0 0 282.81055 10.003906 C 287.80711 10.51734 291.68041 11.032578 294.4043 11.539062 A 0.95009499 0.95009499 0 0 0 294.44727 11.544922 C 297.10817 11.916002 298.97176 12.659314 300.08203 13.634766 A 0.95009499 0.95009499 0 0 0 300.11719 13.664062 C 301.32152 14.62597 302.08873 16.203929 302.33594 18.617188 A 0.95009499 0.95009499 0 0 0 302.34375 18.673828 C 302.72467 21.028865 302.92383 24.469643 302.92383 28.947266 L 302.92383 81.855469 C 302.92383 98.205744 299.64067 110.13656 293.25781 117.73828 C 286.86107 125.35652 277.44135 129.17773 264.71094 129.17773 C 252.63244 129.17773 243.58519 125.78613 237.32812 119.06055 C 231.21514 112.21934 228.07813 101.72988 228.07812 87.455078 L 228.07812 24.314453 C 228.07812 19.725353 228.43336 16.484395 229.01758 14.773438 C 229.55591 13.196893 230.89524 12.129267 233.47656 11.529297 C 236.15117 10.907647 240.54902 10.325616 246.59375 9.8125 A 0.95009499 0.95009499 0 0 0 247.44531 9.0449219 C 247.86235 6.8736848 247.86484 4.7464129 247.44336 2.6894531 A 0.95009499 0.95009499 0 0 0 246.51367 1.9316406 C 222.33939 1.9343406 207.99577 1.8396326 185.78516 1.9316406 z M 493.70117 1.9316406 A 0.95009499 0.95009499 0 0 0 492.75781 2.7675781 C 492.48562 5.0262252 492.48375 7.1668581 492.75977 9.1875 A 0.95009499 0.95009499 0 0 0 493.625 10.005859 C 499.92746 10.518561 504.45432 11.169536 507.0957 11.90625 A 0.95009499 0.95009499 0 0 0 507.13477 11.916016 C 509.67528 12.5065 511.00828 13.688796 511.57812 15.691406 C 512.18421 17.821411 512.53125 21.649683 512.53125 27.017578 L 512.53125 116.80469 C 512.53125 121.39379 512.17797 124.63279 511.59375 126.34375 C 511.05629 127.91775 509.71766 128.98348 507.14453 129.58398 C 504.43114 130.08731 499.90899 130.66566 493.60547 131.30664 A 0.95009499 0.95009499 0 0 0 492.76758 132.08203 C 492.35343 134.37305 492.34914 136.56007 492.77148 138.62109 A 0.95009499 0.95009499 0 0 0 493.70117 139.38086 L 554.82227 139.38086 A 0.95009499 0.95009499 0 0 0 555.75391 138.60938 C 556.17164 136.43454 556.17164 134.2471 555.75391 132.07227 A 0.95009499 0.95009499 0 0 0 554.89648 131.30469 C 550.03902 130.92021 546.30747 130.53411 543.70898 130.1543 C 541.17472 129.65704 539.4135 128.90889 538.43359 128.05859 C 537.48688 127.23711 536.82749 125.82214 536.58008 123.64844 C 536.32328 121.39225 536.18945 118.26257 536.18945 114.29297 L 536.18945 24.507812 C 536.18945 19.918712 536.54273 16.677752 537.12695 14.966797 C 537.66527 13.390258 539.00461 12.322626 541.58594 11.722656 C 544.2573 11.101759 548.72362 10.519028 554.90039 10.005859 A 0.95009499 0.95009499 0 0 0 555.75586 9.2285156 C 556.17002 6.9374827 556.1743 4.7504794 555.75195 2.6894531 A 0.95009499 0.95009499 0 0 0 554.82227 1.9316406 L 493.70117 1.9316406 z M 4.6992188 1.9453125 C 4.3029288 1.9489725 3.8518686 2.1421331 3.5859375 2.4394531 C 3.3200064 2.7367732 3.2164926 3.0651529 3.1582031 3.3691406 C 3.0416241 3.9771162 3.0978618 4.585361 3.1835938 5.2441406 C 3.3550563 6.5616999 3.7039846 8.072112 3.7597656 8.9433594 A 0.95009499 0.95009499 0 0 0 4.6328125 9.828125 C 7.8023065 10.0807 9.8446001 10.55907 11.171875 11.125 C 12.377145 11.638909 12.968595 12.201699 13.435547 12.826172 C 13.194331 20.6999 13.392337 48.021767 13.544922 74.544922 C 13.621692 87.890014 13.687797 100.95908 13.677734 111.08008 C 13.672734 116.14058 13.647596 120.46485 13.597656 123.71484 C 13.547716 126.96484 13.456353 129.22542 13.371094 129.83203 C 13.328864 130.1325 13.213048 130.27407 12.617188 130.50781 C 12.021325 130.74156 11.034033 130.90538 9.8378906 130.99609 C 7.445606 131.17753 4.2189294 131.12009 1.0292969 131.51758 A 0.95009499 0.95009499 0 0 0 0.20703125 132.33008 C -0.0685758 134.34792 -0.068471325 136.43011 0.20507812 138.56641 A 0.95009499 0.95009499 0 0 0 1.1425781 139.39453 C 1.1425781 139.39453 12.899487 139.46114 24.787109 139.49414 C 30.730921 139.51064 36.707218 139.51826 41.265625 139.50586 C 43.544828 139.49986 45.467521 139.4889 46.859375 139.4707 C 47.555302 139.4617 48.118878 139.4504 48.53125 139.4375 C 48.737436 139.4315 48.905448 139.42422 49.041016 139.41602 C 49.176583 139.40802 49.202628 139.42663 49.445312 139.36523 C 49.837973 139.26593 50.150144 138.98869 50.328125 138.7168 C 50.506106 138.44491 50.593206 138.17036 50.654297 137.89062 C 50.776479 137.33116 50.784822 136.72543 50.75 136.07422 C 50.68036 134.77181 50.411651 133.31342 50.132812 132.22461 A 0.95009499 0.95009499 0 0 0 49.330078 131.51758 C 43.154542 130.74799 38.753217 129.97042 36.226562 129.23047 C 33.766464 128.51001 32.545926 127.44316 32.126953 126.01758 C 31.653096 124.27551 31.438066 121.23835 31.568359 117.04102 A 0.95009499 0.95009499 0 0 0 31.570312 116.99805 C 31.570312 116.99805 31.182826 92.085093 31.037109 67.171875 C 30.964249 54.715266 30.951615 42.257463 31.078125 32.921875 C 31.141385 28.254081 31.239412 24.363997 31.380859 21.660156 C 31.417139 20.966684 31.464069 20.600689 31.505859 20.072266 C 31.87917 20.82928 32.241431 21.560483 32.761719 22.703125 C 34.202675 25.867714 36.165225 30.409927 38.464844 35.861328 C 43.064081 46.76413 49.017761 61.313123 54.912109 75.863281 C 66.699988 104.96158 78.246444 134.06237 78.248047 134.06641 L 78.248047 134.06836 L 78.25 134.07031 C 78.701212 135.2155 79.693293 136.03543 80.851562 136.72656 C 82.011207 137.41851 83.380445 137.96853 84.736328 138.38477 C 86.092211 138.801 87.427729 139.08057 88.535156 139.19531 C 89.08887 139.25271 89.584422 139.27132 90.027344 139.23242 C 90.470265 139.19352 90.890346 139.17952 91.337891 138.73047 C 91.483569 138.58429 91.485992 138.54307 91.515625 138.49219 C 91.545255 138.44129 91.5696 138.39799 91.59375 138.34961 C 91.64205 138.25281 91.69258 138.14042 91.753906 138.00195 C 91.876555 137.72501 92.036366 137.34606 92.234375 136.86328 C 92.630392 135.89773 93.177804 134.52052 93.859375 132.78516 C 95.222517 129.31442 97.11837 124.41337 99.371094 118.56055 C 103.87654 106.8549 109.81388 91.339301 115.78711 75.847656 C 121.76034 60.356011 127.77 44.887403 132.41602 33.285156 C 134.73903 27.484033 136.72077 22.649604 138.18359 19.269531 C 138.75558 17.947871 139.1734 17.055814 139.57227 16.214844 C 139.62937 16.782692 139.68737 17.197494 139.74023 17.964844 C 139.93236 20.753457 140.0935 24.779495 140.22656 29.619141 C 140.4927 39.298432 140.64858 52.239828 140.73828 65.1875 C 140.91769 91.082845 140.83203 117.00977 140.83203 117.00977 A 0.95009499 0.95009499 0 0 0 140.83203 117.01172 C 140.83203 121.47081 140.48667 124.70224 139.88867 126.57031 A 0.95009499 0.95009499 0 0 0 139.87695 126.60938 C 139.44939 128.17453 138.26033 129.19719 135.83203 129.79297 C 133.25735 130.29438 129.07061 130.87178 123.32617 131.50977 L 122.99219 131.50977 A 0.95009499 0.95009499 0 0 0 122.04297 132.39844 C 121.9086 134.49711 121.90807 136.53448 122.04297 138.50977 A 0.95009499 0.95009499 0 0 0 122.99219 139.39453 L 182.92383 139.39453 A 0.95009499 0.95009499 0 0 0 183.85742 138.625 C 184.27446 136.45376 184.27695 134.32649 183.85547 132.26953 A 0.95009499 0.95009499 0 0 0 183 131.51172 C 178.14421 131.12739 174.41282 130.74297 171.81445 130.36328 C 169.27903 129.86603 167.51729 129.11616 166.53711 128.26562 C 165.5904 127.44415 164.92905 126.02917 164.68164 123.85547 C 164.42484 121.59929 164.29297 118.47156 164.29297 114.50195 A 0.95009499 0.95009499 0 0 0 164.29297 114.48633 L 162.71094 24.330078 L 162.71094 24.324219 L 162.71094 24.3125 C 162.71179 19.873801 162.98935 16.708734 163.46289 14.957031 C 164.01334 13.249254 165.31344 12.220943 167.86719 11.746094 A 0.95009499 0.95009499 0 0 0 167.9082 11.738281 C 170.1174 11.224803 171.80039 10.793899 173.01172 10.496094 C 174.22304 10.198288 175.05147 10.052734 175.15625 10.052734 A 0.95009499 0.95009499 0 0 0 176.08984 9.28125 C 176.55393 6.8649944 175.56586 4.9169506 175.20312 3.1464844 A 0.95009499 0.95009499 0 0 0 174.29688 2.3886719 C 150.8681 1.7562698 148.74066 2.066501 134.65625 2.1386719 A 0.95009499 0.95009499 0 0 0 133.7793 2.7363281 L 92.347656 106.30859 L 52.275391 2.7460938 A 0.95009499 0.95009499 0 0 0 51.396484 2.1386719 C 39.367529 2.0444722 16.142087 1.8395166 4.6992188 1.9453125 z M 411.64453 9.8164062 C 419.68059 9.8164062 426.40852 11.580767 431.9043 15.074219 A 0.95009499 0.95009499 0 0 0 431.91797 15.083984 C 437.45154 18.475831 441.88011 23.106706 445.23633 29.029297 A 0.95009499 0.95009499 0 0 0 445.24414 29.042969 C 448.74909 34.99892 451.28444 41.657524 452.84766 49.033203 C 454.41604 56.433258 455.19922 64.025949 455.19922 71.814453 C 455.19922 79.47316 454.41557 86.934807 452.84766 94.205078 A 0.95009499 0.95009499 0 0 0 452.84375 94.220703 C 451.41142 101.46611 449.00713 107.99391 445.63477 113.81836 C 442.28137 119.48118 437.8522 123.99111 432.3125 127.38672 A 0.95009499 0.95009499 0 0 0 432.30469 127.39062 C 426.9446 130.75437 420.27933 132.45898 412.23828 132.45898 C 404.07233 132.45898 397.14298 130.69396 391.37891 127.19531 C 385.70484 123.54183 381.13899 118.77055 377.65234 112.8457 C 374.14432 106.88448 371.54196 100.28653 369.84766 93.037109 L 369.84766 93.035156 C 369.84734 93.034206 369.8462 93.0323 369.8457 93.03125 C 368.27941 85.634505 367.49805 78.240126 367.49805 70.847656 C 367.49805 63.320723 368.28227 55.92581 369.84961 48.65625 L 369.84961 48.654297 L 369.84961 48.652344 L 369.84961 48.650391 C 371.54353 41.40647 374.07794 34.876655 377.44922 29.050781 L 377.45312 29.044922 C 377.45362 29.043672 377.45445 29.040387 377.45508 29.039062 L 377.45703 29.037109 C 380.94362 23.242877 385.44317 18.602951 390.98242 15.080078 C 396.61188 11.58298 403.47438 9.8164062 411.64453 9.8164062 z M 637.86719 9.8164062 C 645.90325 9.8164062 652.63117 11.580767 658.12695 15.074219 A 0.95009499 0.95009499 0 0 0 658.14062 15.083984 C 663.6742 18.475831 668.10081 23.106706 671.45703 29.029297 A 0.95009499 0.95009499 0 0 0 671.46484 29.042969 C 674.96979 34.99892 677.50514 41.657524 679.06836 49.033203 C 680.63673 56.433259 681.42187 64.02595 681.42188 71.814453 C 681.42188 79.473159 680.63821 86.934805 679.07031 94.205078 A 0.95009499 0.95009499 0 0 0 679.06641 94.220703 C 677.63407 101.46611 675.22977 107.99391 671.85742 113.81836 C 668.50402 119.48118 664.07486 123.99111 658.53516 127.38672 A 0.95009499 0.95009499 0 0 0 658.52734 127.39062 C 653.16726 130.75437 646.50199 132.45898 638.46094 132.45898 C 630.29499 132.45898 623.36563 130.69396 617.60156 127.19531 C 611.9275 123.54183 607.35969 118.77055 603.87305 112.8457 C 600.36501 106.88448 597.76462 100.28653 596.07031 93.037109 L 596.07031 93.035156 C 596.07 93.034206 596.06886 93.0323 596.06836 93.03125 C 594.50206 85.634505 593.71875 78.240126 593.71875 70.847656 C 593.71875 63.320723 594.50493 55.92581 596.07227 48.65625 L 596.07227 48.654297 L 596.07227 48.652344 L 596.07227 48.650391 C 597.76618 41.40647 600.3006 34.876656 603.67188 29.050781 L 603.67578 29.044922 C 603.67628 29.043672 603.67711 29.040387 603.67773 29.039062 L 603.67969 29.037109 C 607.16628 23.242878 611.66582 18.60295 617.20508 15.080078 C 622.83453 11.58298 629.69704 9.8164061 637.86719 9.8164062 z "
     inkscape:label="Muoio" />
</svg>
