<?xml version="1.0" encoding="UTF-8" standalone="no"?>
<svg
   version="1.1"
   width="396.97809"
   height="84.365524"
   viewBox="0 0 396.97809 84.365525"
   id="svg6"
   sodipodi:docname="MSC_Line+Logo_20250713-1730_Black.svg"
   inkscape:version="1.4.2 (ebf0e940, 2025-05-08)"
   inkscape:export-filename="MSC_Line+Logo_20250713-1730_Black.png"
   inkscape:export-xdpi="400"
   inkscape:export-ydpi="400"
   xmlns:inkscape="http://www.inkscape.org/namespaces/inkscape"
   xmlns:sodipodi="http://sodipodi.sourceforge.net/DTD/sodipodi-0.dtd"
   xmlns="http://www.w3.org/2000/svg"
   xmlns:svg="http://www.w3.org/2000/svg">
  <sodipodi:namedview
     id="namedview6"
     pagecolor="#ffffff"
     bordercolor="#000000"
     borderopacity="0.25"
     inkscape:showpageshadow="2"
     inkscape:pageopacity="0.0"
     inkscape:pagecheckerboard="0"
     inkscape:deskcolor="#d1d1d1"
     inkscape:zoom="1.4071638"
     inkscape:cx="189.38805"
     inkscape:cy="36.243117"
     inkscape:window-width="1752"
     inkscape:window-height="931"
     inkscape:window-x="227"
     inkscape:window-y="540"
     inkscape:window-maximized="0"
     inkscape:current-layer="svg6" />
  <defs
     id="defs2">
    <clipPath
       id="clip_0">
      <path
         transform="matrix(1,0,0,-1,0,595)"
         d="M 41,84 H 800.84 V 512 H 41 Z"
         id="path1" />
    </clipPath>
    <clipPath
       id="clip_1">
      <path
         transform="matrix(1,0,0,-1,0,595)"
         d="M 41,84 H 801 V 512 H 41 Z"
         id="path2" />
    </clipPath>
  </defs>
  <path
     id="path4"
     style="opacity:1;font-size:195.43px;font-family:Castoro;-inkscape-font-specification:'Castoro, Normal';text-align:center;letter-spacing:-2.76535px;baseline-shift:baseline;text-anchor:middle;display:inline;overflow:visible;vector-effect:none;stroke-linecap:round;stroke-linejoin:round;enable-background:accumulate;stop-color:#000000;stop-opacity:1"
     d="M 274.20312 0 C 268.22715 0 262.97178 1.298222 258.4668 3.9042969 C 254.02217 6.4536897 250.56682 10.017963 248.12305 14.572266 C 245.67852 19.074735 244.45898 24.228872 244.45898 30.007812 C 244.45898 35.571953 245.59654 40.56089 247.875 44.955078 A 0.394867 0.394867 0 0 0 247.87695 44.958984 C 250.2111 49.353398 253.52851 52.808631 257.80859 55.304688 C 262.09792 57.806146 267.24124 59.050781 273.21484 59.050781 C 279.24392 59.050781 284.49774 57.779554 288.94922 55.226562 A 0.394867 0.394867 0 0 0 288.95312 55.224609 C 293.39589 52.622414 296.84891 49.061164 299.29297 44.560547 C 301.73863 40.056961 302.95898 34.875867 302.95898 29.042969 C 302.95898 23.425235 301.794 18.436214 299.45898 14.09375 L 299.45898 14.091797 C 297.12472 9.6981923 293.80693 6.2418686 289.52734 3.7460938 C 285.23865 1.2450116 280.12243 -2.9605947e-16 274.20312 0 z M 368.22266 0 C 362.24669 0 356.99132 1.2982223 352.48633 3.9042969 C 348.04171 6.4536896 344.58634 10.017962 342.14258 14.572266 C 339.69805 19.074735 338.47852 24.228872 338.47852 30.007812 C 338.47852 35.571953 339.61607 40.56089 341.89453 44.955078 A 0.394867 0.394867 0 0 0 341.89648 44.958984 C 344.23064 49.353397 347.54805 52.808631 351.82812 55.304688 C 356.11746 57.806146 361.26273 59.050781 367.23633 59.050781 C 373.26541 59.050781 378.51727 57.779554 382.96875 55.226562 A 0.394867 0.394867 0 0 0 382.97266 55.224609 C 387.4154 52.622414 390.86845 49.061165 393.3125 44.560547 C 395.75817 40.056961 396.97852 34.875867 396.97852 29.042969 C 396.97852 23.425235 395.81353 18.436215 393.47852 14.09375 L 393.47852 14.091797 C 391.14426 9.6981923 387.82647 6.2418686 383.54688 3.7460938 C 379.25818 1.2450116 374.14197 -2.9605947e-16 368.22266 0 z M 180.00391 0.80273438 A 0.394867 0.394867 0 0 0 179.61719 1.1230469 C 179.44387 2.0254287 179.44395 2.9087848 179.61914 3.7636719 A 0.394867 0.394867 0 0 0 179.97266 4.078125 C 182.53707 4.2911771 184.3909 4.5605681 185.49023 4.8671875 A 0.394867 0.394867 0 0 0 185.50586 4.8730469 C 186.56172 5.1184574 187.11669 5.6091103 187.35352 6.4414062 C 187.60542 7.3266488 187.75 8.9174972 187.75 11.148438 L 187.75 38.753906 C 187.75 43.249609 188.69409 47.02073 190.60547 50.039062 A 0.394867 0.394867 0 0 0 190.60742 50.042969 C 192.51248 52.996593 195.15972 55.192553 198.51367 56.611328 A 0.394867 0.394867 0 0 0 198.51562 56.613281 C 201.91522 58.027788 205.83171 58.730469 210.25781 58.730469 C 217.99834 58.730469 223.85098 56.72535 227.72461 52.669922 A 0.394867 0.394867 0 0 0 227.72656 52.667969 C 231.58797 48.570715 233.50586 42.890483 233.50586 35.705078 L 233.50586 10.988281 C 233.50586 8.815879 233.65263 7.2838537 233.90039 6.4570312 C 234.18512 5.6817189 234.77483 5.1988472 235.83203 4.953125 C 236.94927 4.6934488 238.77748 4.4249092 241.29102 4.1582031 A 0.394867 0.394867 0 0 0 241.63672 3.8398438 C 241.81004 2.9374611 241.81186 2.0541058 241.63672 1.1992188 A 0.394867 0.394867 0 0 0 241.25 0.8828125 L 220.36914 0.8828125 A 0.394867 0.394867 0 0 0 219.98047 1.203125 C 219.80715 2.1055068 219.80723 2.9888621 219.98242 3.84375 A 0.394867 0.394867 0 0 0 220.32812 4.1582031 C 222.40474 4.3715901 224.01442 4.5844234 225.14648 4.7949219 A 0.394867 0.394867 0 0 0 225.16406 4.7988281 C 226.26995 4.9530513 227.04637 5.2606091 227.50781 5.6660156 A 0.394867 0.394867 0 0 0 227.52148 5.6796875 C 228.02202 6.0794638 228.34063 6.735314 228.44336 7.7382812 A 0.394867 0.394867 0 0 0 228.44727 7.7597656 C 228.60558 8.7385346 228.6875 10.170314 228.6875 12.03125 L 228.6875 34.019531 C 228.6875 40.814837 227.32269 45.774256 224.66992 48.933594 C 222.01139 52.099788 218.0975 53.6875 212.80664 53.6875 C 207.78752 53.6875 204.02817 52.278692 201.42773 49.484375 C 198.88588 46.641161 197.58203 42.279891 197.58203 36.345703 L 197.58203 10.105469 C 197.58203 8.1982016 197.7279 6.851711 197.9707 6.140625 C 198.19444 5.4854028 198.7514 5.0403681 199.82422 4.7910156 C 200.9358 4.5326526 202.7651 4.2913796 205.27734 4.078125 A 0.394867 0.394867 0 0 0 205.63086 3.7597656 C 205.80418 2.8573838 205.806 1.9720746 205.63086 1.1171875 A 0.394867 0.394867 0 0 0 205.24219 0.80273438 C 195.19516 0.80383437 189.23481 0.76449677 180.00391 0.80273438 z M 307.97656 0.80273438 A 0.394867 0.394867 0 0 0 307.58398 1.1503906 C 307.47086 2.0891006 307.4712 2.9785655 307.58594 3.8183594 A 0.394867 0.394867 0 0 0 307.94531 4.1582031 C 310.56466 4.3712858 312.44519 4.641082 313.54297 4.9472656 A 0.394867 0.394867 0 0 0 313.56055 4.953125 C 314.6164 5.1985352 315.16942 5.6891857 315.40625 6.5214844 C 315.65815 7.4067291 315.80273 8.9975744 315.80273 11.228516 L 315.80273 48.544922 C 315.80273 50.452187 315.65492 51.798688 315.41211 52.509766 C 315.18889 53.163497 314.63442 53.605801 313.56641 53.855469 C 312.43892 54.064734 310.55874 54.305728 307.9375 54.572266 A 0.394867 0.394867 0 0 0 307.58789 54.894531 C 307.41577 55.846705 307.4143 56.754748 307.58984 57.611328 A 0.394867 0.394867 0 0 0 307.97656 57.927734 L 333.37891 57.927734 A 0.394867 0.394867 0 0 0 333.76562 57.607422 C 333.93925 56.703538 333.93925 55.794509 333.76562 54.890625 A 0.394867 0.394867 0 0 0 333.41016 54.570312 C 331.39142 54.410528 329.83971 54.2516 328.75977 54.09375 C 327.70709 53.887087 326.97548 53.575925 326.56836 53.222656 C 326.1749 52.881238 325.8997 52.292073 325.79688 51.388672 C 325.69014 50.450982 325.63477 49.151756 325.63477 47.501953 L 325.63477 10.185547 C 325.63477 8.2782803 325.78258 6.931792 326.02539 6.2207031 C 326.24912 5.5654809 326.80609 5.1223993 327.87891 4.8730469 C 328.98914 4.6149977 330.845 4.37148 333.41211 4.1582031 A 0.394867 0.394867 0 0 0 333.76758 3.8359375 C 333.93971 2.8837648 333.94117 1.9737675 333.76562 1.1171875 A 0.394867 0.394867 0 0 0 333.37891 0.80273438 L 307.97656 0.80273438 z M 104.74414 0.80859375 C 104.57944 0.81011675 104.39177 0.89010302 104.28125 1.0136719 C 104.17073 1.1372407 104.12774 1.2740509 104.10352 1.4003906 C 104.05502 1.6530701 104.07738 1.9058937 104.11328 2.1796875 C 104.18458 2.7272752 104.33033 3.354702 104.35352 3.7167969 A 0.394867 0.394867 0 0 0 104.71484 4.0859375 C 106.03211 4.1909101 106.88197 4.387842 107.43359 4.6230469 C 107.94795 4.8423612 108.17911 5.0853454 108.375 5.3535156 C 108.2751 8.6371441 108.35662 19.968671 108.41992 30.982422 C 108.45182 36.528746 108.47881 41.959651 108.47461 46.166016 C 108.47261 48.269198 108.46211 50.065294 108.44141 51.416016 C 108.42061 52.766737 108.38306 53.706872 108.34766 53.958984 C 108.33006 54.083862 108.28276 54.143088 108.03516 54.240234 C 107.78751 54.337384 107.37603 54.405657 106.87891 54.443359 C 105.88465 54.518769 104.54439 54.494949 103.21875 54.660156 A 0.394867 0.394867 0 0 0 102.87695 54.998047 C 102.76241 55.836681 102.76136 56.701979 102.875 57.589844 A 0.394867 0.394867 0 0 0 103.26562 57.933594 C 103.26562 57.933594 108.15121 57.960899 113.0918 57.974609 C 115.56209 57.981509 118.0469 57.985569 119.94141 57.980469 C 120.88866 57.977869 121.68716 57.972374 122.26562 57.964844 C 122.55486 57.961044 122.78955 57.956542 122.96094 57.951172 C 123.04664 57.948472 123.11553 57.946759 123.17188 57.943359 C 123.22817 57.939959 123.23898 57.947355 123.33984 57.921875 C 123.50304 57.880615 123.63306 57.765343 123.70703 57.652344 C 123.78103 57.539344 123.81836 57.424852 123.84375 57.308594 C 123.89455 57.076077 123.89721 56.825334 123.88281 56.554688 C 123.85391 56.013396 123.74284 55.405643 123.62695 54.953125 A 0.394867 0.394867 0 0 0 123.29297 54.660156 C 120.72637 54.340304 118.89775 54.016506 117.84766 53.708984 C 116.82572 53.4097 116.31889 52.967046 116.14453 52.375 C 115.94734 51.651197 115.85598 50.388078 115.91016 48.642578 A 0.394867 0.394867 0 0 0 115.91016 48.625 C 115.91016 48.625 115.75002 38.272097 115.68945 27.917969 C 115.65915 22.740905 115.65443 17.563537 115.70703 13.683594 C 115.73333 11.743622 115.77323 10.12569 115.83203 9.0019531 C 115.84713 8.7133143 115.86737 8.56163 115.88477 8.3417969 C 116.03995 8.6564693 116.18994 8.9604848 116.40625 9.4355469 C 117.00512 10.750775 117.8216 12.638652 118.77734 14.904297 C 120.68882 19.435586 123.16354 25.482137 125.61328 31.529297 C 130.51276 43.623616 135.31055 55.720703 135.31055 55.720703 C 135.498 56.196862 135.91106 56.536899 136.39258 56.824219 C 136.87454 57.111798 137.4443 57.34068 138.00781 57.513672 C 138.57133 57.686664 139.12568 57.801923 139.58594 57.849609 C 139.81607 57.873449 140.02295 57.881414 140.20703 57.865234 C 140.39111 57.849054 140.56595 57.842884 140.75195 57.65625 C 140.81255 57.5955 140.81387 57.579744 140.82617 57.558594 C 140.83847 57.537444 140.84742 57.518177 140.85742 57.498047 C 140.87752 57.457797 140.89833 57.411067 140.92383 57.353516 C 140.97483 57.238417 141.04075 57.081504 141.12305 56.880859 C 141.28763 56.479569 141.51556 55.906779 141.79883 55.185547 C 142.36536 53.743083 143.15359 51.707869 144.08984 49.275391 C 145.96234 44.410434 148.42959 37.961887 150.91211 31.523438 C 153.39463 25.084989 155.89134 18.655969 157.82227 13.833984 C 158.78773 11.422992 159.61274 9.4125972 160.2207 8.0078125 C 160.45808 7.4593212 160.63123 7.0895524 160.79688 6.7402344 C 160.82057 6.9760168 160.84529 7.1483567 160.86719 7.4667969 C 160.94699 8.6257664 161.01501 10.299152 161.07031 12.310547 C 161.18092 16.333336 161.24592 21.710643 161.2832 27.091797 C 161.3578 37.854104 161.32227 48.628906 161.32227 48.628906 A 0.394867 0.394867 0 0 0 161.32227 48.630859 C 161.32227 50.48409 161.17822 51.827129 160.92969 52.603516 A 0.394867 0.394867 0 0 0 160.92383 52.619141 C 160.74618 53.269452 160.25279 53.695727 159.24414 53.943359 C 158.17333 54.151983 156.43233 54.390734 154.04102 54.65625 L 153.90625 54.65625 A 0.394867 0.394867 0 0 0 153.51172 55.025391 C 153.45592 55.897615 153.45757 56.745462 153.51367 57.566406 A 0.394867 0.394867 0 0 0 153.90625 57.933594 L 178.81445 57.933594 A 0.394867 0.394867 0 0 0 179.20312 57.613281 C 179.37646 56.710894 179.37638 55.827549 179.20117 54.972656 A 0.394867 0.394867 0 0 0 178.8457 54.658203 C 176.83033 54.498683 175.28479 54.339235 174.20508 54.181641 C 173.14664 53.974992 172.4124 53.663051 172.00391 53.308594 C 171.61045 52.967175 171.33721 52.378021 171.23438 51.474609 C 171.12766 50.536927 171.07227 49.237693 171.07227 47.587891 A 0.394867 0.394867 0 0 0 171.07227 47.580078 L 170.41406 10.111328 L 170.41406 10.109375 L 170.41406 10.103516 C 170.41452 8.2577595 170.53134 6.9419641 170.72852 6.2148438 C 170.95755 5.505923 171.49599 5.0800321 172.55664 4.8828125 A 0.394867 0.394867 0 0 0 172.57422 4.8789062 C 173.49238 4.6655005 174.19188 4.4870516 174.69531 4.3632812 C 175.19875 4.239511 175.54239 4.1777344 175.58594 4.1777344 A 0.394867 0.394867 0 0 0 175.97461 3.8574219 C 176.16749 2.8532047 175.75622 2.0444109 175.60547 1.3085938 A 0.394867 0.394867 0 0 0 175.23047 0.9921875 C 165.49323 0.72932814 164.6075 0.85868061 158.75391 0.88867188 A 0.394867 0.394867 0 0 0 158.39062 1.1367188 L 141.17188 44.183594 L 124.51562 1.140625 A 0.394867 0.394867 0 0 0 124.15039 0.88867188 C 119.15106 0.84951577 109.49988 0.76462477 104.74414 0.80859375 z M 273.87305 4.0800781 C 277.2129 4.0800781 280.00887 4.8137186 282.29297 6.265625 A 0.394867 0.394867 0 0 0 282.29883 6.2695312 C 284.59862 7.6792092 286.43912 9.6029769 287.83398 12.064453 A 0.394867 0.394867 0 0 0 287.83789 12.070312 C 289.29458 14.545651 290.34835 17.313515 290.99805 20.378906 C 291.64988 23.454427 291.97461 26.608739 291.97461 29.845703 C 291.97461 33.028722 291.64968 36.130762 290.99805 39.152344 A 0.394867 0.394867 0 0 0 290.99609 39.158203 C 290.4008 42.169444 289.40157 44.882058 288 47.302734 C 286.60623 49.656781 284.7656 51.531898 282.46289 52.943359 A 0.394867 0.394867 0 0 0 282.45898 52.945312 C 280.2313 54.343316 277.46106 55.050781 274.11914 55.050781 C 270.72428 55.050781 267.84524 54.316275 265.44922 52.861328 L 265.44727 52.861328 C 263.09046 51.343165 261.19456 49.361771 259.74609 46.900391 C 258.28902 44.42436 257.2081 41.682637 256.50391 38.671875 L 256.50391 38.669922 C 255.85206 35.593695 255.52539 32.519758 255.52539 29.445312 C 255.52539 26.318869 255.85131 23.246165 256.50195 20.226562 C 257.20599 17.21311 258.25984 14.497384 259.66211 12.074219 C 261.11161 9.6635082 262.98128 7.7328473 265.28516 6.2675781 L 265.28906 6.265625 C 267.62803 4.8136935 270.47922 4.0800781 273.87305 4.0800781 z M 367.89258 4.0800781 C 371.23243 4.0800781 374.0284 4.8137186 376.3125 6.265625 A 0.394867 0.394867 0 0 0 376.31836 6.2695312 C 378.61815 7.6792092 380.45865 9.6029769 381.85352 12.064453 A 0.394867 0.394867 0 0 0 381.85742 12.070312 C 383.3141 14.545653 384.3679 17.313516 385.01758 20.378906 C 385.66941 23.454428 385.99414 26.60874 385.99414 29.845703 C 385.99414 33.028721 385.66921 36.130761 385.01758 39.152344 A 0.394867 0.394867 0 0 0 385.01562 39.158203 C 384.42034 42.169444 383.42111 44.882058 382.01953 47.302734 C 380.62575 49.656783 378.78513 51.531898 376.48242 52.943359 A 0.394867 0.394867 0 0 0 376.47852 52.945312 C 374.25082 54.343317 371.48255 55.050781 368.14062 55.050781 C 364.74577 55.050781 361.86478 54.316275 359.46875 52.861328 L 359.4668 52.861328 C 357.10999 51.343165 355.2141 49.361771 353.76562 46.900391 C 352.30854 44.424362 351.22763 41.682638 350.52344 38.671875 L 350.52344 38.669922 C 349.87159 35.593696 349.54492 32.519759 349.54492 29.445312 C 349.54492 26.316903 349.87197 23.242135 350.52344 20.220703 L 350.52344 20.21875 C 351.22747 17.208524 352.28063 14.495217 353.68164 12.074219 C 355.13114 9.6635082 357.00081 7.7328473 359.30469 6.2675781 L 359.30859 6.265625 C 361.64756 4.8136935 364.49875 4.0800781 367.89258 4.0800781 z " />
  <path
     style="font-size:23.9605px;font-family:Castoro;-inkscape-font-specification:'Castoro, Normal';text-align:center;letter-spacing:0.83068px;text-anchor:middle;stroke-width:0.256323;stroke-linecap:round"
     d="m 109.627,84.341581 q -0.024,0 -0.7907,-0.04792 -0.74277,-0.02396 -1.72515,-0.191684 -0.81466,-0.143763 -1.48555,-0.191684 -0.64694,-0.07188 -0.7907,-0.07188 -0.024,-1.988722 -0.21565,-4.816061 0.19169,-0.02396 0.38337,-0.02396 0.21565,0 0.38337,0 0.45525,2.108524 1.50951,3.258628 1.07822,1.150105 2.82734,1.150105 1.55743,0 2.53981,-0.838618 0.98238,-0.862578 0.98238,-2.252287 0,-1.054262 -0.55109,-1.725156 -0.52713,-0.670894 -1.41367,-1.126144 -0.86257,-0.47921 -1.84495,-0.886538 -1.15011,-0.503171 -2.20437,-1.054262 -1.0303,-0.575052 -1.7012,-1.461591 -0.67089,-0.886538 -0.67089,-2.300208 0,-1.509511 0.74278,-2.587734 0.76673,-1.078222 2.03664,-1.629314 1.2699,-0.575052 2.80338,-0.575052 0.47921,0 0.98238,0.04792 0.52713,0.04792 1.07822,0.143763 0.69485,0.09584 1.05426,0.119803 0.38337,0.02396 0.50317,0.02396 0.0719,0 0.26357,0 0.19168,-0.02396 0.31148,-0.04792 0.0479,1.054262 0.0959,2.180406 0.0479,1.126143 0.14376,2.348129 -0.47921,0.07188 -0.7907,0.04792 -0.55109,-2.084564 -1.36575,-2.995063 -0.81465,-0.934459 -2.32416,-0.934459 -1.31783,0 -2.25229,0.718815 -0.93446,0.694854 -0.93446,2.084563 0,0.742776 0.33545,1.317828 0.3594,0.575052 1.17406,1.102183 0.81466,0.527131 2.25229,1.126143 0.79069,0.335447 1.58139,0.742776 0.81466,0.407328 1.48555,0.98238 0.6709,0.551092 1.07822,1.365749 0.40733,0.790696 0.40733,1.892879 0,1.629314 -0.81465,2.779418 -0.81466,1.126144 -2.15645,1.725157 -1.31783,0.599012 -2.92318,0.599012 z m 6.55727,-0.311486 q -0.0479,-0.383368 0,-0.766736 0.67089,-0.07188 1.07822,-0.167724 0.40733,-0.09584 0.69486,-0.335447 0.28752,-0.263566 0.55109,-0.766736 0.26356,-0.527131 0.62297,-1.461591 l 5.17547,-13.274117 q 0.26356,-0.09584 0.62297,-0.143763 0.38337,-0.04792 0.64694,-0.04792 l 5.1515,13.681446 q 0.33545,0.862578 0.55109,1.365748 0.21565,0.47921 0.47921,0.694855 0.26357,0.215645 0.6709,0.311487 0.40733,0.07188 1.12614,0.143763 0.0479,0.383368 0,0.766736 -0.83862,0 -1.72515,-0.02396 -0.88654,-0.02396 -1.77308,-0.02396 -0.9105,0 -1.84496,0.02396 -0.9105,0.02396 -1.821,0.02396 -0.0719,-0.359408 0,-0.766736 1.17407,-0.119803 1.62932,-0.215645 0.45525,-0.119802 0.45525,-0.575052 0,-0.191684 -0.0719,-0.431289 -0.0719,-0.239605 -0.19168,-0.599013 l -1.36575,-3.689917 h -5.39111 l -1.19803,3.306549 q -0.16772,0.45525 -0.26356,0.766736 -0.0719,0.287526 -0.0719,0.527131 0,0.527131 0.47921,0.670895 0.50317,0.119802 1.62931,0.239605 0.0479,0.407328 0,0.766736 -0.81466,0 -1.60535,-0.02396 -0.7907,-0.02396 -1.60536,-0.02396 -0.67089,0 -1.29386,0.02396 -0.62298,0.02396 -1.34179,0.02396 z m 5.63072,-7.283993 h 4.67229 l -2.34812,-6.373493 z m 12.83491,7.283993 q -0.0479,-0.359408 0,-0.766736 1.1501,-0.119803 1.65327,-0.215645 0.50317,-0.119802 0.62298,-0.47921 0.1198,-0.359408 0.1198,-1.221986 V 70.204886 q 0,-1.006341 -0.1198,-1.43763 -0.11981,-0.431289 -0.62298,-0.551092 -0.47921,-0.143763 -1.58139,-0.239605 -0.0479,-0.359407 0,-0.766736 0.57505,0 0.95842,0.02396 0.40733,0 0.83862,0 0.43129,0 1.07822,0.02396 0.67089,0 1.77308,0 1.36575,0 2.77942,0 1.41367,-0.02396 2.61169,-0.02396 1.22199,0 1.96476,0 0.76674,-0.02396 0.81466,-0.02396 0.1198,0.910499 0.26356,1.89288 0.14377,0.98238 0.31149,2.084563 -0.19168,0.02396 -0.40733,0.02396 -0.19168,0 -0.38337,-0.02396 -0.62297,-1.605353 -1.46159,-2.252287 -0.86257,-0.694854 -2.70753,-0.694854 h -3.47428 v 6.780821 h 1.5814 q 1.1501,0 1.74911,-0.143763 0.59902,-0.167723 0.88654,-0.694854 0.28753,-0.551092 0.45525,-1.725156 0.43129,-0.07188 0.81466,0 -0.024,1.006341 -0.0479,1.605353 0,0.575052 0,0.910499 0,0.335447 0,0.622973 0,0.263566 0,0.599013 0,0.335447 0,0.934459 0.024,0.599013 0.0479,1.629314 -0.35941,0.07188 -0.81466,0 -0.14376,-1.269906 -0.43129,-1.820998 -0.28752,-0.575052 -0.86258,-0.718815 -0.55109,-0.143763 -1.58139,-0.143763 h -1.79704 v 4.959824 q 0,0.742775 0.0479,1.150104 0.0479,0.407328 0.28752,0.646933 0.23961,0.215645 0.71882,0.287527 0.50317,0.07188 1.43763,0.143763 0.0719,0.383368 0,0.766736 -0.50317,0 -1.22199,-0.02396 -0.71881,0 -1.43763,0 -0.69485,-0.02396 -1.17406,-0.02396 -0.45525,0 -1.12615,0.02396 -0.67089,0 -1.36575,0 -0.67089,0.02396 -1.19802,0.02396 z m 15.44659,0 q -0.0479,-0.359408 0,-0.766736 1.12615,-0.119803 1.60536,-0.215645 0.47921,-0.119802 0.59901,-0.47921 0.1198,-0.383368 0.1198,-1.221986 V 70.204886 q 0,-1.006341 -0.1198,-1.43763 -0.1198,-0.431289 -0.62297,-0.551092 -0.47921,-0.143763 -1.5814,-0.239605 -0.0479,-0.359407 0,-0.766736 0.62298,0 1.07823,0.02396 0.47921,0 0.95842,0 0.47921,0 1.1501,0.02396 0.6709,0 1.7012,0 1.89288,0 3.54615,0 1.65328,-0.02396 2.75546,-0.02396 1.10218,-0.02396 1.29387,-0.02396 0.0958,0.886539 0.21564,1.820998 0.14376,0.93446 0.31149,1.988722 -0.40733,0.04792 -0.7907,0 -0.28753,-0.718815 -0.67089,-1.269907 -0.38337,-0.551091 -0.7907,-0.838617 -0.45525,-0.335447 -1.10218,-0.503171 -0.62298,-0.167723 -1.55744,-0.167723 h -3.13882 v 6.541216 h 1.31783 q 1.1501,0 1.74911,-0.143763 0.59901,-0.167723 0.88654,-0.694854 0.28753,-0.551092 0.45525,-1.725156 0.43129,-0.07188 0.81466,0 -0.024,1.43763 -0.0479,2.108524 0,0.670894 0,1.006341 0,0.383368 0,1.174064 0.024,0.766736 0.0479,1.988722 -0.35941,0.07188 -0.81466,0 -0.14376,-1.269907 -0.43129,-1.820998 -0.28752,-0.551092 -0.86258,-0.694855 -0.55109,-0.143763 -1.58139,-0.143763 h -1.53347 v 5.199429 q 0,0.814657 0,1.317827 0.024,0.47921 0.0479,0.622974 h 3.28259 q 1.19802,0 1.91684,-0.191685 0.74277,-0.215644 1.22198,-0.622973 0.33545,-0.263565 0.7907,-0.910499 0.45525,-0.670894 0.86258,-1.533472 0.38337,-0.04792 0.74277,0 -0.2396,1.341788 -0.40733,2.420011 -0.16772,1.078223 -0.28752,1.868919 -1.07822,0 -2.34813,0 -1.26991,0 -2.53981,0 -1.26991,-0.02396 -2.32417,-0.02396 -1.0303,0 -1.65328,0 -1.12614,0 -1.84495,0.02396 -0.69486,0 -1.24595,0 -0.52713,0.02396 -1.17407,0.02396 z m 19.75947,0 q -0.0479,-0.359408 0,-0.766736 1.19802,-0.119803 1.70119,-0.215645 0.50317,-0.119802 0.62297,-0.47921 0.11981,-0.359408 0.11981,-1.221986 V 68.264085 h -1.72516 q -1.26991,0 -2.01268,0.359408 -0.71882,0.335447 -1.17407,1.030301 -0.43128,0.694855 -0.86257,1.773077 -0.38337,0.04792 -0.76674,0 0.14376,-1.150104 0.26357,-2.204366 0.14376,-1.054262 0.2396,-2.036642 1.55743,0.09584 3.45031,0.119802 1.89288,0 3.92952,0 2.06061,0 3.95349,0 1.91684,-0.02396 3.45031,-0.119802 0.0958,0.95842 0.19168,2.036642 0.0959,1.054262 0.23961,2.204366 -0.40733,0.04792 -0.7907,0 -0.45525,-1.102183 -0.9105,-1.797037 -0.45525,-0.694855 -1.17406,-1.030302 -0.69486,-0.335447 -1.96476,-0.335447 h -1.7012 v 12.770947 q 0,0.742775 0.0479,1.174064 0.0479,0.431289 0.26357,0.622973 0.2396,0.191685 0.74277,0.287527 0.50317,0.07188 1.38971,0.143763 0.0719,0.383368 0,0.766736 -0.50317,0 -1.22198,-0.02396 -0.69486,0 -1.38971,0 -0.69486,-0.02396 -1.17407,-0.02396 -0.45525,0 -1.1501,0.02396 -0.67089,0 -1.38971,0 -0.69485,0.02396 -1.19802,0.02396 z m 25.00683,-13.441841 -3.5222,6.277651 v 4.169127 q 0,0.742775 0.0479,1.174064 0.0479,0.431289 0.26357,0.622973 0.21564,0.191685 0.69485,0.287527 0.47921,0.07188 1.36575,0.143763 0.0719,0.383368 0,0.766736 -0.50317,0 -1.19802,-0.02396 -0.69486,0 -1.38971,0 -0.6709,-0.02396 -1.12615,-0.02396 -0.45525,0 -1.12614,0.02396 -0.67089,0 -1.36575,0 -0.69485,0.02396 -1.19802,0.02396 -0.0479,-0.359408 0,-0.766736 1.1501,-0.119803 1.65327,-0.215645 0.50317,-0.119802 0.62297,-0.47921 0.11981,-0.383368 0.11981,-1.221986 V 77.10551 l -3.642,-6.661019 q -0.43129,-0.814657 -0.71881,-1.269907 -0.28753,-0.47921 -0.57506,-0.694854 -0.26356,-0.239605 -0.67089,-0.335447 -0.38337,-0.09584 -1.07822,-0.167724 -0.0479,-0.383368 0,-0.766736 0.86258,0 1.77307,0.02396 0.9105,0.02396 1.79704,0.02396 0.76674,0 1.7012,-0.02396 0.93446,-0.02396 1.79704,-0.02396 0.0479,0.359408 0,0.766736 -1.03031,0.09584 -1.4616,0.239605 -0.43128,0.119803 -0.43128,0.45525 0,0.167723 0.1198,0.455249 0.14376,0.263566 0.35941,0.670894 l 3.13882,5.870323 3.16279,-5.846362 q 0.43129,-0.790697 0.43129,-1.078223 0,-0.359407 -0.50317,-0.47921 -0.47921,-0.143763 -1.67724,-0.287526 -0.0479,-0.407328 0,-0.766736 0.38337,0 0.98238,0.02396 0.59901,0 1.17407,0.02396 0.59901,0 0.98238,0 0.76673,0 1.41367,-0.02396 0.67089,-0.02396 1.41367,-0.02396 0.0479,0.383368 0,0.766736 -0.69486,0.07188 -1.12615,0.167724 -0.43129,0.09584 -0.74277,0.359407 -0.31149,0.239605 -0.64694,0.742776 -0.33544,0.47921 -0.81465,1.341788 z m 25.23849,8.458056 q -0.28753,2.108524 -0.43129,4.28893 -1.31783,0.383368 -2.68358,0.694855 -1.36574,0.311486 -2.92318,0.311486 -2.65961,0 -4.62437,-1.054262 -1.9408,-1.054262 -3.01903,-2.947142 -1.07822,-1.91684 -1.07822,-4.504574 0,-2.611694 1.07822,-4.600416 1.07823,-2.012682 3.04299,-3.138825 1.96476,-1.126144 4.62437,-1.126144 0.98238,0 1.72516,0.119803 0.74278,0.119802 1.79704,0.359407 0.47921,0.09584 0.83861,0.191684 0.35941,0.09584 0.74278,0.09584 0.1198,0 0.26357,0 0.14376,-0.02396 0.2396,-0.04792 0.0479,1.054262 0.0958,2.180406 0.0479,1.126143 0.14377,2.348129 -0.47921,0.07188 -0.81466,0.04792 -0.93446,-4.336851 -4.9119,-4.336851 -1.60536,0 -2.7315,0.646934 -1.12614,0.622973 -1.821,1.725156 -0.69485,1.078222 -1.00634,2.443971 -0.31149,1.365748 -0.31149,2.851299 0,2.108524 0.62298,3.881601 0.62297,1.773077 1.96476,2.827339 1.34179,1.054263 3.45031,1.054263 1.98872,0 3.16279,-1.054263 1.19802,-1.054262 1.72515,-3.282588 0.19169,0 0.38337,0 0.21564,0 0.45525,0.02396 z m 20.16682,-3.522193 q 0,2.587734 -1.05426,4.576455 -1.05427,1.988722 -2.97111,3.138826 -1.91684,1.126144 -4.52853,1.126144 -2.58773,0 -4.43269,-1.102183 -1.84496,-1.102184 -2.8513,-3.042984 -0.98238,-1.940801 -0.98238,-4.408732 0,-2.563774 1.05426,-4.552495 1.05426,-2.012682 2.9711,-3.138826 1.9408,-1.150104 4.52854,-1.150104 2.56377,0 4.40873,1.102183 1.84496,1.102183 2.8513,3.042984 1.00634,1.91684 1.00634,4.408732 z m -2.9711,0.239605 q 0,-1.461591 -0.28753,-2.8513 -0.28753,-1.389709 -0.93446,-2.515852 -0.62297,-1.126144 -1.65327,-1.773077 -1.03031,-0.670894 -2.51586,-0.670894 -1.50951,0 -2.56377,0.670894 -1.0303,0.670894 -1.67723,1.773077 -0.62298,1.102183 -0.93446,2.467931 -0.28753,1.365749 -0.28753,2.779418 0,1.389709 0.28753,2.779418 0.31148,1.365749 0.95842,2.491892 0.64693,1.126144 1.70119,1.820998 1.07822,0.670895 2.58774,0.670895 1.48555,0 2.49189,-0.646934 1.0303,-0.646934 1.65327,-1.725156 0.62298,-1.102183 0.88654,-2.467932 0.28753,-1.365748 0.28753,-2.803378 z m 19.87928,8.410136 -10.66243,-13.992933 v 10.255094 q 0,0.910499 0.0479,1.41367 0.0479,0.47921 0.28752,0.742775 0.23961,0.239605 0.74278,0.407329 0.50317,0.167724 1.43763,0.263566 0.0479,0.383368 0,0.766736 -0.71882,0 -1.60536,-0.02396 -0.86257,-0.02396 -1.46159,-0.02396 -0.59901,0 -1.48555,0.02396 -0.86258,0.02396 -1.55743,0.02396 -0.0719,-0.359408 0,-0.766736 0.86258,-0.119803 1.34179,-0.215645 0.47921,-0.119802 0.69485,-0.335447 0.21565,-0.239605 0.26357,-0.694855 0.0719,-0.455249 0.0719,-1.269906 v -9.823805 q 0,-0.95842 -0.0719,-1.509512 -0.0479,-0.551091 -0.31149,-0.814657 -0.2396,-0.287526 -0.76673,-0.407328 -0.50318,-0.143763 -1.41367,-0.239605 -0.024,-0.359408 0,-0.742776 0.74277,0 1.58139,0.02396 0.83862,0.02396 1.67723,0.02396 0.11981,0 0.64694,0 0.55109,0 0.95842,-0.02396 l 9.72796,12.794907 v -9.200832 q 0,-0.910499 -0.0479,-1.41367 -0.024,-0.50317 -0.28753,-0.742775 -0.50317,-0.527131 -2.42001,-0.670894 -0.0719,-0.407329 0,-0.766736 0.45525,0 1.07823,0.02396 0.64693,0 1.24594,0.02396 0.59901,0 0.98238,0 0.59901,0 1.48555,-0.02396 0.88654,-0.02396 1.5814,-0.02396 0.0479,0.359407 0,0.742775 -1.15011,0.143763 -1.65328,0.335447 -0.50317,0.167724 -0.62297,0.646934 -0.1198,0.47921 -0.1198,1.557432 v 13.537683 q -0.23961,0.04792 -0.64694,0.07188 -0.40733,0.04792 -0.71881,0.04792 z m 11.08576,0.167723 q -0.024,0 -0.7907,-0.04792 -0.74277,-0.02396 -1.72515,-0.191684 -0.81466,-0.143763 -1.48555,-0.191684 -0.64694,-0.07188 -0.7907,-0.07188 -0.024,-1.988722 -0.21565,-4.816061 0.19169,-0.02396 0.38337,-0.02396 0.21565,0 0.38337,0 0.45525,2.108524 1.50951,3.258628 1.07823,1.150105 2.82734,1.150105 1.55743,0 2.53981,-0.838618 0.98239,-0.862578 0.98239,-2.252287 0,-1.054262 -0.5511,-1.725156 -0.52713,-0.670894 -1.41367,-1.126144 -0.86257,-0.47921 -1.84495,-0.886538 -1.15011,-0.503171 -2.20437,-1.054262 -1.0303,-0.575052 -1.7012,-1.461591 -0.67089,-0.886538 -0.67089,-2.300208 0,-1.509511 0.74278,-2.587734 0.76673,-1.078222 2.03664,-1.629314 1.2699,-0.575052 2.80338,-0.575052 0.47921,0 0.98238,0.04792 0.52713,0.04792 1.07822,0.143763 0.69485,0.09584 1.05426,0.119803 0.38337,0.02396 0.50317,0.02396 0.0719,0 0.26357,0 0.19168,-0.02396 0.31148,-0.04792 0.0479,1.054262 0.0958,2.180406 0.0479,1.126143 0.14376,2.348129 -0.47921,0.07188 -0.7907,0.04792 -0.55109,-2.084564 -1.36575,-2.995063 -0.81465,-0.934459 -2.32416,-0.934459 -1.31783,0 -2.25229,0.718815 -0.93446,0.694854 -0.93446,2.084563 0,0.742776 0.33545,1.317828 0.3594,0.575052 1.17406,1.102183 0.81466,0.527131 2.25229,1.126143 0.79069,0.335447 1.58139,0.742776 0.81466,0.407328 1.48555,0.98238 0.6709,0.551092 1.07822,1.365749 0.40733,0.790696 0.40733,1.892879 0,1.629314 -0.81465,2.779418 -0.81466,1.126144 -2.15645,1.725157 -1.31783,0.599012 -2.92318,0.599012 z m 8.13865,-17.131758 q 0.47921,0 1.1501,0.02396 0.69485,0 1.36575,0.02396 0.69485,0 1.1501,0 0.45525,0 1.12615,0 0.69485,-0.02396 1.38971,-0.02396 0.69485,-0.02396 1.17406,-0.02396 0.0719,0.359408 0,0.742776 -1.10218,0.09584 -1.60535,0.215644 -0.50317,0.119803 -0.62298,0.47921 -0.1198,0.359408 -0.1198,1.221986 v 7.835083 q 0,2.683576 1.15011,4.001404 1.17406,1.293867 3.40239,1.293867 2.34813,0 3.54615,-1.461591 1.19803,-1.46159 1.19803,-4.528534 v -6.565177 q 0,-0.838618 -0.0719,-1.293867 -0.0479,-0.47921 -0.31148,-0.694855 -0.23961,-0.215644 -0.74278,-0.287526 -0.50317,-0.09584 -1.41367,-0.191684 -0.0719,-0.359407 0,-0.742775 0.64694,0 1.55743,0.02396 0.9105,0.02396 1.4616,0.02396 0.59901,0 1.48555,-0.02396 0.9105,-0.02396 1.58139,-0.02396 0.0719,0.359407 0,0.742775 -1.10218,0.119803 -1.60535,0.239605 -0.50317,0.119803 -0.64694,0.527131 -0.1198,0.407329 -0.1198,1.389709 v 7.379834 q 0,3.186747 -1.65327,4.983784 -1.65328,1.773078 -5.00775,1.773078 -1.91684,0 -3.37843,-0.622973 -1.43763,-0.622973 -2.25229,-1.916841 -0.81465,-1.317827 -0.81465,-3.306549 v -8.242412 q 0,-1.006341 -0.11981,-1.43763 -0.1198,-0.431289 -0.62297,-0.551091 -0.50317,-0.143763 -1.62931,-0.239605 -0.0719,-0.359408 0,-0.742776 z m 19.66364,16.820272 q -0.0479,-0.359408 0,-0.766736 1.12614,-0.119803 1.60535,-0.215645 0.47921,-0.119802 0.59901,-0.47921 0.1198,-0.383368 0.1198,-1.221986 V 70.204886 q 0,-1.006341 -0.1198,-1.43763 -0.1198,-0.431289 -0.62297,-0.551092 -0.47921,-0.143763 -1.58139,-0.239605 -0.0479,-0.359407 0,-0.766736 0.50317,0 1.17406,0.02396 0.69485,0 1.36575,0.02396 0.67089,0 1.10218,0 0.45525,0 1.12614,0 0.69486,-0.02396 1.38971,-0.02396 0.71882,-0.02396 1.17407,-0.02396 0.0719,0.359408 0,0.766736 -1.12615,0.09584 -1.62932,0.215645 -0.50317,0.119802 -0.62297,0.47921 -0.1198,0.359407 -0.1198,1.221985 v 11.141633 q 0,0.814657 0,1.317827 0.024,0.47921 0.0479,0.646934 h 3.40239 q 1.98872,0 2.94714,-0.886539 0.7907,-0.766736 1.65328,-2.683576 0.38337,-0.07188 0.74277,0 -0.28752,1.461591 -0.47921,2.635655 -0.16772,1.150105 -0.28752,1.940801 -2.32417,0 -4.64834,0 -2.30021,-0.02396 -4.62438,-0.02396 -0.45525,0 -1.1501,0.02396 -0.69486,0 -1.38971,0 -0.69485,0.02396 -1.17406,0.02396 z m 17.33945,0 q -0.0479,-0.359408 0,-0.766736 1.19802,-0.119803 1.70119,-0.215645 0.50317,-0.119802 0.62298,-0.47921 0.1198,-0.359408 0.1198,-1.221986 V 68.264085 h -1.72516 q -1.2699,0 -2.01268,0.359408 -0.71882,0.335447 -1.17406,1.030301 -0.43129,0.694855 -0.86258,1.773077 -0.38337,0.04792 -0.76674,0 0.14376,-1.150104 0.26357,-2.204366 0.14376,-1.054262 0.2396,-2.036642 1.55743,0.09584 3.45031,0.119802 1.89288,0 3.92953,0 2.0606,0 3.95348,0 1.91684,-0.02396 3.45031,-0.119802 0.0958,0.95842 0.19168,2.036642 0.0958,1.054262 0.23961,2.204366 -0.40733,0.04792 -0.7907,0 -0.45525,-1.102183 -0.9105,-1.797037 -0.45525,-0.694855 -1.17406,-1.030302 -0.69485,-0.335447 -1.96476,-0.335447 h -1.7012 v 12.770947 q 0,0.742775 0.0479,1.174064 0.0479,0.431289 0.26357,0.622973 0.2396,0.191685 0.74278,0.287527 0.50317,0.07188 1.3897,0.143763 0.0719,0.383368 0,0.766736 -0.50317,0 -1.22198,-0.02396 -0.69486,0 -1.38971,0 -0.69485,-0.02396 -1.17406,-0.02396 -0.45525,0 -1.15011,0.02396 -0.67089,0 -1.38971,0 -0.69485,0.02396 -1.19802,0.02396 z m 10.41489,0 q -0.0479,-0.383368 0,-0.766736 0.67089,-0.07188 1.07822,-0.167724 0.40733,-0.09584 0.69485,-0.335447 0.28753,-0.263566 0.55109,-0.766736 0.26357,-0.527131 0.62298,-1.461591 l 5.17547,-13.274117 q 0.26356,-0.09584 0.62297,-0.143763 0.38337,-0.04792 0.64693,-0.04792 l 5.15151,13.681446 q 0.33545,0.862578 0.55109,1.365748 0.21565,0.47921 0.47921,0.694855 0.26357,0.215645 0.6709,0.311487 0.40732,0.07188 1.12614,0.143763 0.0479,0.383368 0,0.766736 -0.83862,0 -1.72516,-0.02396 -0.88654,-0.02396 -1.77307,-0.02396 -0.9105,0 -1.84496,0.02396 -0.9105,0.02396 -1.821,0.02396 -0.0719,-0.359408 0,-0.766736 1.17406,-0.119803 1.62931,-0.215645 0.45525,-0.119802 0.45525,-0.575052 0,-0.191684 -0.0719,-0.431289 -0.0719,-0.239605 -0.19168,-0.599013 l -1.36575,-3.689917 h -5.39111 l -1.19803,3.306549 q -0.16772,0.45525 -0.26356,0.766736 -0.0719,0.287526 -0.0719,0.527131 0,0.527131 0.47921,0.670895 0.50317,0.119802 1.62932,0.239605 0.0479,0.407328 0,0.766736 -0.81466,0 -1.60536,-0.02396 -0.79069,-0.02396 -1.60535,-0.02396 -0.67089,0 -1.29387,0.02396 -0.62297,0.02396 -1.34178,0.02396 z m 5.63071,-7.283993 h 4.6723 l -2.34813,-6.373493 z m 26.99557,7.427756 -10.66242,-13.992933 v 10.255094 q 0,0.910499 0.0479,1.41367 0.0479,0.47921 0.28753,0.742775 0.2396,0.239605 0.74277,0.407329 0.50317,0.167724 1.43763,0.263566 0.0479,0.383368 0,0.766736 -0.71881,0 -1.60535,-0.02396 -0.86258,-0.02396 -1.46159,-0.02396 -0.59901,0 -1.48555,0.02396 -0.86258,0.02396 -1.55743,0.02396 -0.0719,-0.359408 0,-0.766736 0.86257,-0.119803 1.34178,-0.215645 0.47921,-0.119802 0.69486,-0.335447 0.21564,-0.239605 0.26356,-0.694855 0.0719,-0.455249 0.0719,-1.269906 v -9.823805 q 0,-0.95842 -0.0719,-1.509512 -0.0479,-0.551091 -0.31148,-0.814657 -0.23961,-0.287526 -0.76674,-0.407328 -0.50317,-0.143763 -1.41367,-0.239605 -0.024,-0.359408 0,-0.742776 0.74278,0 1.5814,0.02396 0.83861,0.02396 1.67723,0.02396 0.1198,0 0.64693,0 0.5511,0 0.95842,-0.02396 l 9.72797,12.794907 v -9.200832 q 0,-0.910499 -0.0479,-1.41367 -0.024,-0.50317 -0.28753,-0.742775 -0.50317,-0.527131 -2.42001,-0.670894 -0.0719,-0.407329 0,-0.766736 0.45525,0 1.07822,0.02396 0.64694,0 1.24595,0.02396 0.59901,0 0.98238,0 0.59901,0 1.48555,-0.02396 0.88654,-0.02396 1.58139,-0.02396 0.0479,0.359407 0,0.742775 -1.1501,0.143763 -1.65327,0.335447 -0.50317,0.167724 -0.62297,0.646934 -0.11981,0.47921 -0.11981,1.557432 v 13.537683 q -0.2396,0.04792 -0.64693,0.07188 -0.40733,0.04792 -0.71882,0.04792 z m 20.90957,-5.127548 q -0.28752,2.108524 -0.43129,4.28893 -1.31782,0.383368 -2.68357,0.694855 -1.36575,0.311486 -2.92318,0.311486 -2.65962,0 -4.62438,-1.054262 -1.9408,-1.054262 -3.01902,-2.947142 -1.07823,-1.91684 -1.07823,-4.504574 0,-2.611694 1.07823,-4.600416 1.07822,-2.012682 3.04298,-3.138825 1.96476,-1.126144 4.62438,-1.126144 0.98238,0 1.72515,0.119803 0.74278,0.119802 1.79704,0.359407 0.47921,0.09584 0.83862,0.191684 0.3594,0.09584 0.74277,0.09584 0.11981,0 0.26357,0 0.14376,-0.02396 0.2396,-0.04792 0.0479,1.054262 0.0959,2.180406 0.0479,1.126143 0.14376,2.348129 -0.47921,0.07188 -0.81466,0.04792 -0.93446,-4.336851 -4.9119,-4.336851 -1.60536,0 -2.7315,0.646934 -1.12614,0.622973 -1.821,1.725156 -0.69485,1.078222 -1.00634,2.443971 -0.31148,1.365748 -0.31148,2.851299 0,2.108524 0.62297,3.881601 0.62297,1.773077 1.96476,2.827339 1.34179,1.054263 3.45031,1.054263 1.98872,0 3.16279,-1.054263 1.19802,-1.054262 1.72515,-3.282588 0.19169,0 0.38337,0 0.21565,0 0.45525,0.02396 z m 14.41632,-8.458056 -3.5222,6.277651 v 4.169127 q 0,0.742775 0.0479,1.174064 0.0479,0.431289 0.26357,0.622973 0.21564,0.191685 0.69485,0.287527 0.47921,0.07188 1.36575,0.143763 0.0719,0.383368 0,0.766736 -0.50317,0 -1.19802,-0.02396 -0.69486,0 -1.38971,0 -0.6709,-0.02396 -1.12615,-0.02396 -0.45524,0 -1.12614,0.02396 -0.67089,0 -1.36575,0 -0.69485,0.02396 -1.19802,0.02396 -0.0479,-0.359408 0,-0.766736 1.1501,-0.119803 1.65327,-0.215645 0.50317,-0.119802 0.62298,-0.47921 0.1198,-0.383368 0.1198,-1.221986 V 77.10551 l -3.642,-6.661019 q -0.43129,-0.814657 -0.71881,-1.269907 -0.28753,-0.47921 -0.57506,-0.694854 -0.26356,-0.239605 -0.67089,-0.335447 -0.38337,-0.09584 -1.07822,-0.167724 -0.0479,-0.383368 0,-0.766736 0.86258,0 1.77307,0.02396 0.9105,0.02396 1.79704,0.02396 0.76674,0 1.7012,-0.02396 0.93446,-0.02396 1.79704,-0.02396 0.0479,0.359408 0,0.766736 -1.03031,0.09584 -1.46159,0.239605 -0.43129,0.119803 -0.43129,0.45525 0,0.167723 0.1198,0.455249 0.14376,0.263566 0.35941,0.670894 l 3.13882,5.870323 3.16279,-5.846362 q 0.43129,-0.790697 0.43129,-1.078223 0,-0.359407 -0.50317,-0.47921 -0.47921,-0.143763 -1.67724,-0.287526 -0.0479,-0.407328 0,-0.766736 0.38337,0 0.98238,0.02396 0.59901,0 1.17407,0.02396 0.59901,0 0.98238,0 0.76673,0 1.41367,-0.02396 0.67089,-0.02396 1.41367,-0.02396 0.0479,0.383368 0,0.766736 -0.69486,0.07188 -1.12615,0.167724 -0.43129,0.09584 -0.74277,0.359407 -0.31149,0.239605 -0.64694,0.742776 -0.33544,0.47921 -0.81465,1.341788 z"
     id="text1"
     aria-label="SAFETY CONSULTANCY" />
  <path
     style="fill:#000000;fill-opacity:1;stroke:none;stroke-width:0.216217;stroke-dasharray:none"
     d="m 39.135121,84.078455 c -8.21196,-0.59648 -16.72129,-4.08573 -19.84981,-6.72969 -0.57871,-0.48908 -0.24004,-0.93272 2.03158,-2.6652 12.9923,-10.15241 1.66812,-1.18816 17.26929,-13.27362 3.80892,-2.9506 5.24674,-4.01146 6.26898,-4.62545 2.15613,-1.29505 6.42219,-3.10757 9.07923,-3.85747 4.50245,-1.45504 9.16631,-2.12459 13.83502,-2.74288 2.14879,-0.28748 8.90541,-0.54788 12.24974,-0.54777 l 3.32922,1.1e-4 c -0.14683,1.22807 -0.41615,2.70211 -1.10445,4.84943 -1.85488,5.78678 -4.11239,10.08383 -9.15171,15.99673 -8.88636,9.45708 -21.0966,14.52993 -33.95709,13.59581 z M 0.01694076,41.6129 c -0.1068,-0.278355 0.31189,-4.120351 0.68014,-6.241086 0.83597004,-4.814159 2.46070004,-9.716521 4.28519004,-12.929828 1.07493,-1.893171 1.70792,-2.933174 2.45601,-4.035213 16.8807602,-24.8677145 54.5969602,-24.1301975 70.4143202,1.376912 3.90543,6.297915 6.92579,16.430118 6.39868,21.465267 l -0.0529,0.504398 -42.0499,0.0363 C 5.1586908,41.82165 0.08876076,41.80025 0.01685076,41.61292 Z"
     id="path1-3"
     sodipodi:nodetypes="sssssssscscssssssscss" />
</svg>
