<?xml version="1.0" encoding="UTF-8" standalone="no"?>
<svg
   version="1.1"
   width="63.722725"
   height="50.831196"
   viewBox="0 0 63.722725 50.831197"
   id="svg6"
   sodipodi:docname="MSC_Block+Logo_20250713-1730_Black.svg"
   inkscape:version="1.4.2 (ebf0e940, 2025-05-08)"
   xmlns:inkscape="http://www.inkscape.org/namespaces/inkscape"
   xmlns:sodipodi="http://sodipodi.sourceforge.net/DTD/sodipodi-0.dtd"
   xmlns="http://www.w3.org/2000/svg"
   xmlns:svg="http://www.w3.org/2000/svg">
  <sodipodi:namedview
     id="namedview6"
     pagecolor="#ffffff"
     bordercolor="#000000"
     borderopacity="0.25"
     inkscape:showpageshadow="2"
     inkscape:pageopacity="0.0"
     inkscape:pagecheckerboard="0"
     inkscape:deskcolor="#d1d1d1"
     inkscape:zoom="17.059988"
     inkscape:cx="16.295439"
     inkscape:cy="33.558054"
     inkscape:window-width="1616"
     inkscape:window-height="1028"
     inkscape:window-x="298"
     inkscape:window-y="763"
     inkscape:window-maximized="0"
     inkscape:current-layer="svg6" />
  <defs
     id="defs2">
    <clipPath
       id="clip_0">
      <path
         transform="matrix(1,0,0,-1,0,595)"
         d="M 41,84 H 800.84 V 512 H 41 Z"
         id="path1" />
    </clipPath>
    <clipPath
       id="clip_1">
      <path
         transform="matrix(1,0,0,-1,0,595)"
         d="M 41,84 H 801 V 512 H 41 Z"
         id="path2" />
    </clipPath>
  </defs>
  <path
     id="path4"
     style="opacity:1;font-size:195.43px;font-family:Castoro;-inkscape-font-specification:'Castoro, Normal';text-align:center;letter-spacing:-2.76535px;baseline-shift:baseline;text-anchor:middle;display:inline;overflow:visible;vector-effect:none;stroke-linecap:round;stroke-linejoin:round;enable-background:accumulate;stop-color:#000000;stop-opacity:1"
     d="M 37.128906 32.556641 C 35.834475 32.556641 34.696511 32.837853 33.720703 33.402344 C 32.757823 33.954569 32.009859 34.726297 31.480469 35.712891 C 30.950793 36.688268 30.685547 37.804678 30.685547 39.056641 C 30.685547 40.261865 30.932253 41.343116 31.425781 42.294922 C 31.931372 43.246777 32.651029 43.996448 33.578125 44.537109 C 34.507211 45.078939 35.622101 45.347656 36.916016 45.347656 C 38.221949 45.347656 39.358049 45.072524 40.322266 44.519531 A 0.08553056 0.08553056 0 0 0 40.324219 44.519531 C 41.286544 43.95588 42.035057 43.183844 42.564453 42.208984 C 43.094198 41.233482 43.357422 40.111095 43.357422 38.847656 C 43.357422 37.630674 43.105512 36.550058 42.599609 35.609375 C 42.09402 34.65752 41.374354 33.909801 40.447266 33.369141 C 39.518311 32.827392 38.411061 32.556641 37.128906 32.556641 z M 57.494141 32.556641 C 56.199709 32.556641 55.061753 32.837853 54.085938 33.402344 C 53.123067 33.954569 52.375086 34.726296 51.845703 35.712891 C 51.316019 36.688268 51.050781 37.804678 51.050781 39.056641 C 51.050781 40.261865 51.297488 41.343116 51.791016 42.294922 C 52.296606 43.246778 53.016272 43.996449 53.943359 44.537109 C 54.872453 45.078939 55.987334 45.347656 57.28125 45.347656 C 58.587183 45.347656 59.723283 45.072524 60.6875 44.519531 A 0.08553056 0.08553056 0 0 0 60.689453 44.519531 C 61.651779 43.95588 62.400292 43.183844 62.929688 42.208984 C 63.459434 41.233482 63.722656 40.111095 63.722656 38.847656 C 63.722656 37.630674 63.470745 36.550058 62.964844 35.609375 C 62.459253 34.657519 61.739588 33.909801 60.8125 33.369141 C 59.883545 32.827392 58.776295 32.556641 57.494141 32.556641 z M 16.712891 32.730469 A 0.08553056 0.08553056 0 0 0 16.640625 32.800781 C 16.603055 32.99625 16.602655 33.187866 16.640625 33.373047 A 0.08553056 0.08553056 0 0 0 16.71875 33.441406 C 17.274216 33.487556 17.673986 33.544913 17.912109 33.611328 A 0.08553056 0.08553056 0 0 0 17.916016 33.613281 C 18.144718 33.666441 18.265071 33.772828 18.316406 33.953125 C 18.370946 34.144889 18.402344 34.489424 18.402344 34.972656 L 18.402344 40.951172 C 18.402344 41.924967 18.607468 42.742696 19.021484 43.396484 C 19.434128 44.036257 20.00789 44.512998 20.734375 44.820312 C 21.470746 45.126705 22.318623 45.279297 23.277344 45.279297 C 24.953986 45.279297 26.221504 44.843273 27.060547 43.964844 A 0.08553056 0.08553056 0 0 0 27.0625 43.964844 C 27.898909 43.077355 28.314453 41.847415 28.314453 40.291016 L 28.314453 34.9375 C 28.314453 34.46872 28.345118 34.138538 28.398438 33.958984 C 28.459727 33.789466 28.586182 33.682424 28.816406 33.628906 C 29.058358 33.57266 29.455551 33.51481 30 33.457031 A 0.08553056 0.08553056 0 0 0 30.074219 33.388672 C 30.111789 33.193203 30.112189 33.001587 30.074219 32.816406 A 0.08553056 0.08553056 0 0 0 29.990234 32.748047 L 25.46875 32.748047 A 0.08553056 0.08553056 0 0 0 25.384766 32.818359 C 25.347196 33.013827 25.346796 33.205444 25.384766 33.390625 A 0.08553056 0.08553056 0 0 0 25.458984 33.457031 C 25.908789 33.503251 26.258692 33.550111 26.503906 33.595703 A 0.08553056 0.08553056 0 0 0 26.507812 33.595703 C 26.747355 33.629113 26.913722 33.697343 27.013672 33.785156 A 0.08553056 0.08553056 0 0 0 27.017578 33.787109 C 27.126 33.873699 27.194524 34.015164 27.216797 34.232422 A 0.08553056 0.08553056 0 0 0 27.21875 34.238281 C 27.25306 34.450287 27.269531 34.760976 27.269531 35.164062 L 27.269531 39.925781 C 27.269531 41.397682 26.974996 42.471919 26.400391 43.15625 C 25.824537 43.842065 24.97611 44.185547 23.830078 44.185547 C 22.742954 44.185547 21.928502 43.880605 21.365234 43.275391 C 20.814653 42.659534 20.533203 41.715068 20.533203 40.429688 L 20.533203 34.746094 C 20.533203 34.332965 20.564577 34.040724 20.617188 33.886719 C 20.665647 33.744795 20.785196 33.649723 21.017578 33.595703 C 21.258354 33.539743 21.655056 33.487595 22.199219 33.441406 A 0.08553056 0.08553056 0 0 0 22.275391 33.371094 C 22.312961 33.175626 22.313361 32.984009 22.275391 32.798828 A 0.08553056 0.08553056 0 0 0 22.191406 32.730469 C 20.015164 32.730707 18.724077 32.722169 16.724609 32.730469 A 0.08553056 0.08553056 0 0 0 16.712891 32.730469 z M 44.433594 32.730469 A 0.08553056 0.08553056 0 0 0 44.359375 32.806641 C 44.334855 33.009975 44.334515 33.202855 44.359375 33.384766 A 0.08553056 0.08553056 0 0 0 44.4375 33.457031 C 45.004866 33.503181 45.412606 33.562585 45.650391 33.628906 A 0.08553056 0.08553056 0 0 0 45.654297 33.628906 C 45.882992 33.682066 46.003344 33.790402 46.054688 33.970703 C 46.109228 34.162467 46.140625 34.507003 46.140625 34.990234 L 46.140625 43.072266 C 46.140625 43.485385 46.107258 43.777589 46.054688 43.931641 C 46.006228 44.073564 45.886671 44.168637 45.654297 44.222656 C 45.409959 44.267936 45.002529 44.319296 44.435547 44.376953 A 0.08553056 0.08553056 0 0 0 44.361328 44.447266 C 44.324018 44.653518 44.323288 44.85156 44.361328 45.037109 A 0.08553056 0.08553056 0 0 0 44.445312 45.105469 L 49.947266 45.105469 A 0.08553056 0.08553056 0 0 0 50.03125 45.035156 C 50.06889 44.839363 50.06889 44.643058 50.03125 44.447266 A 0.08553056 0.08553056 0 0 0 49.953125 44.376953 C 49.514926 44.342273 49.177338 44.307704 48.943359 44.273438 C 48.717224 44.228678 48.558436 44.162069 48.470703 44.085938 C 48.385483 44.011987 48.326978 43.883188 48.304688 43.6875 C 48.281548 43.484394 48.269531 43.203059 48.269531 42.845703 L 48.269531 34.763672 C 48.269531 34.350544 48.300906 34.058301 48.353516 33.904297 C 48.401976 33.762373 48.523477 33.667301 48.755859 33.613281 C 48.996335 33.557381 49.397073 33.503225 49.953125 33.457031 A 0.08553056 0.08553056 0 0 0 50.03125 33.388672 C 50.06856 33.18242 50.06929 32.984376 50.03125 32.798828 A 0.08553056 0.08553056 0 0 0 49.947266 32.730469 L 44.445312 32.730469 A 0.08553056 0.08553056 0 0 0 44.433594 32.730469 z M 0.421875 32.732422 C 0.3861998 32.732752 0.34620603 32.750584 0.32226562 32.777344 C 0.29832522 32.804104 0.28845112 32.833968 0.28320312 32.861328 C 0.27270712 32.916058 0.27939237 32.969991 0.28710938 33.029297 C 0.30254427 33.147908 0.33286542 33.282892 0.33789062 33.361328 A 0.08553056 0.08553056 0 0 0 0.41601562 33.441406 C 0.70134312 33.464146 0.88637494 33.507646 1.0058594 33.558594 C 1.1169199 33.605954 1.1666047 33.658938 1.2089844 33.716797 C 1.1874994 34.427655 1.20498 36.881638 1.21875 39.267578 C 1.22568 40.468943 1.2313697 41.645518 1.2304688 42.556641 C 1.2300183 43.012202 1.2291094 43.400785 1.2246094 43.693359 C 1.2201194 43.985933 1.210799 44.189531 1.203125 44.244141 C 1.199325 44.271191 1.1903597 44.285601 1.1367188 44.306641 C 1.0830768 44.327681 0.99244632 44.341439 0.88476562 44.349609 C 0.66940422 44.365939 0.37893739 44.360704 0.091796875 44.396484 A 0.08553056 0.08553056 0 0 0 0.01953125 44.470703 C -0.00529717 44.652361 -0.007064835 44.838929 0.017578125 45.03125 A 0.08553056 0.08553056 0 0 0 0.10351562 45.105469 C 0.10351562 45.105469 1.1603088 45.112234 2.2304688 45.115234 C 2.7655486 45.116734 3.3044815 45.116334 3.7148438 45.115234 C 3.9200248 45.114677 4.0934506 45.114959 4.21875 45.113281 C 4.2814 45.112466 4.3320173 45.110575 4.3691406 45.109375 C 4.3877026 45.108795 4.4018585 45.108222 4.4140625 45.107422 C 4.4262665 45.106683 4.4293259 45.109016 4.4511719 45.103516 C 4.4865199 45.094616 4.515228 45.069392 4.53125 45.044922 C 4.547273 45.020442 4.5550459 44.995883 4.5605469 44.970703 C 4.5715499 44.920343 4.5714934 44.865265 4.5683594 44.806641 C 4.5620994 44.689391 4.5387959 44.558969 4.5136719 44.460938 A 0.08553056 0.08553056 0 0 0 4.4414062 44.396484 C 3.8854645 44.327155 3.4891754 44.258019 3.2617188 44.191406 C 3.0400436 44.126486 2.9302195 44.028929 2.8925781 43.900391 C 2.8497124 43.743785 2.8300655 43.471381 2.8417969 43.09375 A 0.08553056 0.08553056 0 0 0 2.8417969 43.089844 C 2.8417969 43.089844 2.8080319 40.846276 2.7949219 38.603516 C 2.7883619 37.482135 2.785485 36.361903 2.796875 35.521484 C 2.802575 35.101275 2.8114837 34.751222 2.8242188 34.507812 C 2.8274687 34.445692 2.8321985 34.412652 2.8359375 34.365234 C 2.8695165 34.433334 2.9024474 34.498845 2.9492188 34.601562 C 3.0789376 34.886449 3.2558722 35.294405 3.4628906 35.785156 C 3.8769274 36.766659 4.4127325 38.076869 4.9433594 39.386719 C 6.0046132 42.006417 7.0449219 44.626953 7.0449219 44.626953 C 7.0854759 44.730237 7.1749015 44.802944 7.2792969 44.865234 C 7.3836922 44.927524 7.5068452 44.978154 7.6289062 45.015625 C 7.7509673 45.053095 7.8710094 45.077561 7.9707031 45.087891 C 8.0205501 45.093091 8.065596 45.095297 8.1054688 45.091797 C 8.1453418 45.088297 8.1823657 45.087295 8.2226562 45.046875 C 8.2229971 45.046533 8.232196 45.036373 8.234375 45.033203 L 8.2363281 45.03125 L 8.2363281 45.029297 L 8.2382812 45.027344 L 8.2382812 45.025391 C 8.2409513 45.020791 8.2439238 45.016089 8.2460938 45.011719 C 8.2504438 45.003019 8.2542436 44.992929 8.2597656 44.980469 C 8.2708066 44.955539 8.2849084 44.922369 8.3027344 44.878906 C 8.3383854 44.791986 8.3878613 44.667942 8.4492188 44.511719 C 8.571933 44.199273 8.7425154 43.757358 8.9453125 43.230469 C 9.3509068 42.176691 9.8861001 40.77937 10.423828 39.384766 C 10.961556 37.990161 11.501674 36.597204 11.919922 35.552734 C 12.129046 35.0305 12.307766 34.5953 12.439453 34.291016 C 12.490993 34.171912 12.528523 34.091362 12.564453 34.015625 C 12.569653 34.067005 12.575278 34.104175 12.580078 34.173828 C 12.597378 34.424867 12.611067 34.786977 12.623047 35.222656 C 12.647007 36.094015 12.661852 37.260193 12.669922 38.425781 C 12.686072 40.756958 12.677734 43.089844 12.677734 43.089844 A 0.08553056 0.08553056 0 0 0 12.677734 43.091797 C 12.677734 43.493222 12.64761 43.783022 12.59375 43.951172 A 0.08553056 0.08553056 0 0 0 12.591797 43.955078 C 12.553577 44.094982 12.445955 44.186439 12.230469 44.240234 L 12.228516 44.240234 C 11.995994 44.285564 11.618024 44.338764 11.097656 44.396484 L 11.072266 44.396484 A 0.08553056 0.08553056 0 0 0 10.986328 44.476562 C 10.974218 44.665495 10.974178 44.847566 10.986328 45.025391 A 0.08553056 0.08553056 0 0 0 11.072266 45.105469 L 16.466797 45.105469 A 0.08553056 0.08553056 0 0 0 16.550781 45.037109 C 16.588351 44.84164 16.588751 44.650026 16.550781 44.464844 A 0.08553056 0.08553056 0 0 0 16.474609 44.396484 C 16.038088 44.361934 15.70262 44.327104 15.46875 44.292969 C 15.239488 44.248209 15.080672 44.180291 14.992188 44.103516 C 14.906968 44.029566 14.848462 43.902721 14.826172 43.707031 C 14.803042 43.503928 14.791016 43.22259 14.791016 42.865234 A 0.08553056 0.08553056 0 0 0 14.791016 42.863281 L 14.648438 34.746094 C 14.648551 34.346196 14.674027 34.05969 14.716797 33.902344 C 14.766667 33.749609 14.88227 33.657823 15.111328 33.615234 A 0.08553056 0.08553056 0 0 0 15.115234 33.613281 C 15.314115 33.567061 15.465173 33.528761 15.574219 33.501953 C 15.683264 33.475143 15.758131 33.462891 15.767578 33.462891 A 0.08553056 0.08553056 0 0 0 15.851562 33.392578 C 15.893332 33.175068 15.804164 32.999244 15.771484 32.839844 A 0.08553056 0.08553056 0 0 0 15.691406 32.771484 C 13.582385 32.714572 13.390963 32.743506 12.123047 32.75 A 0.08553056 0.08553056 0 0 0 12.042969 32.802734 L 8.3125 42.125 L 4.7050781 32.804688 A 0.08553056 0.08553056 0 0 0 4.6269531 32.75 C 3.5440637 32.7415 1.4519961 32.722902 0.421875 32.732422 z M 37.056641 33.441406 C 37.780072 33.441406 38.386113 33.599571 38.880859 33.914062 A 0.08553056 0.08553056 0 0 0 38.882812 33.914062 C 39.380961 34.219409 39.779894 34.636751 40.082031 35.169922 A 0.08553056 0.08553056 0 0 0 40.082031 35.171875 C 40.397557 35.708046 40.626853 36.306721 40.767578 36.970703 C 40.908804 37.636872 40.978516 38.320336 40.978516 39.021484 C 40.978516 39.710944 40.908726 40.382617 40.767578 41.037109 A 0.08553056 0.08553056 0 0 0 40.765625 41.039062 C 40.636682 41.691316 40.420777 42.278403 40.117188 42.802734 C 39.81525 43.312881 39.416919 43.719555 38.917969 44.025391 C 38.435438 44.328206 37.835208 44.482422 37.111328 44.482422 C 36.376545 44.482422 35.753131 44.322481 35.234375 44.007812 C 34.723039 43.67882 34.312164 43.250575 33.998047 42.716797 C 33.682452 42.180505 33.447455 41.585698 33.294922 40.933594 L 33.294922 40.931641 C 33.153908 40.265823 33.083984 39.600988 33.083984 38.935547 C 33.083984 38.257773 33.153754 37.592093 33.294922 36.9375 C 33.44753 36.284301 33.676402 35.697031 33.980469 35.171875 L 33.978516 35.171875 C 34.292648 34.649425 34.697869 34.23151 35.197266 33.914062 C 35.704046 33.599244 36.321139 33.441406 37.056641 33.441406 z M 57.421875 33.441406 C 58.145306 33.441406 58.751339 33.599571 59.246094 33.914062 A 0.08553056 0.08553056 0 0 0 59.248047 33.914062 C 59.746194 34.219408 60.145128 34.636751 60.447266 35.169922 A 0.08553056 0.08553056 0 0 0 60.447266 35.171875 C 60.762792 35.708046 60.992086 36.306722 61.132812 36.970703 C 61.274037 37.636872 61.34375 38.320336 61.34375 39.021484 C 61.34375 39.710943 61.27395 40.382616 61.132812 41.037109 A 0.08553056 0.08553056 0 0 0 61.130859 41.039062 C 61.001916 41.691316 60.786012 42.278402 60.482422 42.802734 C 60.180484 43.312881 59.782153 43.719555 59.283203 44.025391 C 58.800665 44.328206 58.200435 44.482422 57.476562 44.482422 C 56.741779 44.482422 56.118373 44.322481 55.599609 44.007812 C 55.088281 43.67882 54.677398 43.250574 54.363281 42.716797 C 54.047686 42.180505 53.812689 41.585698 53.660156 40.933594 L 53.660156 40.931641 C 53.519143 40.265823 53.449219 39.600988 53.449219 38.935547 C 53.449219 38.257773 53.518989 37.592093 53.660156 36.9375 C 53.812764 36.284302 54.041644 35.697032 54.345703 35.171875 L 54.34375 35.171875 C 54.65789 34.649425 55.063105 34.23151 55.5625 33.914062 C 56.069272 33.599244 56.686373 33.441406 57.421875 33.441406 z " />
  <path
     style="font-size:5.18998px;font-family:Castoro;-inkscape-font-specification:'Castoro, Normal';text-align:center;letter-spacing:0.17993px;text-anchor:middle;stroke-width:0.055521;stroke-linecap:round;stroke:none"
     d="m 1.4808471,50.826009 q -0.00519,0 -0.1712694,-0.01038 -0.1608894,-0.0052 -0.37367855,-0.04152 -0.17645932,-0.03114 -0.32177876,-0.04152 -0.14012946,-0.01557 -0.17126934,-0.01557 -0.00519,-0.430768 -0.0467098,-1.043186 0.0415198,-0.0052 0.0830397,-0.0052 0.0467098,0 0.0830397,0 0.0986096,0.456719 0.32696874,0.705838 Q 1.1227384,50.6236 1.501607,50.6236 q 0.3373487,0 0.5501379,-0.181649 0.2127891,-0.18684 0.2127891,-0.487859 0,-0.228359 -0.1193695,-0.373678 Q 2.0309849,49.435094 1.8389557,49.336485 1.6521164,49.232685 1.4393272,49.144455 1.1902082,49.035466 0.96184905,48.916096 0.73867991,48.791537 0.59336047,48.599508 0.44804103,48.407478 0.44804103,48.10127 q 0,-0.326969 0.16088938,-0.560518 0.16607936,-0.233549 0.44114829,-0.352919 0.275069,-0.124559 0.6072277,-0.124559 0.1037996,0 0.2127892,0.01038 0.1141795,0.01038 0.2335491,0.03114 0.1505094,0.02076 0.2283591,0.02595 0.08304,0.0052 0.1089896,0.0052 0.01557,0 0.05709,0 0.04152,-0.0052 0.06747,-0.01038 0.01038,0.228359 0.02076,0.472288 0.01038,0.24393 0.03114,0.508618 -0.1037996,0.01557 -0.1712694,0.01038 -0.1193695,-0.451528 -0.2958288,-0.648747 -0.1764593,-0.202409 -0.5034281,-0.202409 -0.2854489,0 -0.4878581,0.155699 -0.20240923,0.15051 -0.20240923,0.451528 0,0.16089 0.0726597,0.285449 0.07785,0.12456 0.254309,0.238739 0.1764593,0.11418 0.4878581,0.243929 0.1712694,0.07266 0.3425387,0.16089 0.1764593,0.08823 0.3217788,0.212789 0.1453194,0.11937 0.2335491,0.295829 0.08823,0.171269 0.08823,0.410008 0,0.352919 -0.1764593,0.602038 -0.1764593,0.243929 -0.4670982,0.373679 -0.2854489,0.129749 -0.6331775,0.129749 z m 1.4203416,-0.06747 q -0.01038,-0.08304 0,-0.166079 0.1453195,-0.01557 0.2335491,-0.03633 0.08823,-0.02076 0.1505095,-0.07266 0.06228,-0.05709 0.1193695,-0.166079 0.05709,-0.11418 0.1349395,-0.316589 L 4.660592,47.125553 q 0.05709,-0.02076 0.1349395,-0.03114 0.08304,-0.01038 0.1401294,-0.01038 l 1.1158457,2.963479 q 0.07266,0.186839 0.1193696,0.295829 0.04671,0.103799 0.1037996,0.150509 0.05709,0.04671 0.1453194,0.06747 0.08823,0.01557 0.2439291,0.03114 0.01038,0.08304 0,0.166079 -0.1816493,0 -0.3736786,-0.0052 -0.1920293,-0.0052 -0.3840585,-0.0052 -0.1972193,0 -0.3996285,0.0052 -0.1972192,0.0052 -0.3944385,0.0052 -0.01557,-0.07785 0,-0.166079 0.2543091,-0.02595 0.3529187,-0.04671 0.09861,-0.02595 0.09861,-0.124559 0,-0.04152 -0.01557,-0.09342 -0.01557,-0.0519 -0.04152,-0.12975 L 5.2107299,49.398765 H 4.0429844 l -0.2594991,0.716217 q -0.03633,0.09861 -0.05709,0.166079 -0.01557,0.06228 -0.01557,0.11418 0,0.114179 0.1037996,0.145319 0.1089896,0.02595 0.3529187,0.0519 0.01038,0.08823 0,0.166079 -0.1764593,0 -0.3477287,-0.0052 -0.1712693,-0.0052 -0.3477287,-0.0052 -0.1453194,0 -0.2802589,0.0052 -0.1349395,0.0052 -0.2906389,0.0052 z M 4.1208341,49.180785 H 5.1328802 L 4.6242621,47.800251 Z m 2.7801146,1.577754 q -0.01038,-0.07785 0,-0.166079 0.249119,-0.02595 0.3581086,-0.04671 0.1089896,-0.02595 0.1349395,-0.103799 0.02595,-0.07785 0.02595,-0.264689 v -2.413341 q 0,-0.217979 -0.02595,-0.311399 -0.02595,-0.09342 -0.1349395,-0.11937 -0.1037996,-0.03114 -0.3425387,-0.0519 -0.01038,-0.07785 0,-0.16608 0.1245596,0 0.2075992,0.0052 0.08823,0 0.1816493,0 0.09342,0 0.2335491,0.0052 0.1453195,0 0.3840586,0 0.2958288,0 0.6020376,0 0.3062089,-0.0052 0.5657079,-0.0052 0.264689,0 0.4255783,0 0.1660794,-0.0052 0.1764594,-0.0052 0.02595,0.19722 0.05709,0.410009 0.03114,0.212789 0.06747,0.451528 -0.04152,0.0052 -0.08823,0.0052 -0.04152,0 -0.08304,-0.0052 Q 9.5115087,47.628981 9.3298594,47.488852 9.1430201,47.338342 8.7433916,47.338342 H 7.9908445 v 1.468765 h 0.3425387 q 0.249119,0 0.3788685,-0.03114 0.1297495,-0.03633 0.1920293,-0.15051 0.06228,-0.119369 0.09861,-0.373678 0.09342,-0.01557 0.1764593,0 -0.00519,0.217979 -0.01038,0.347729 0,0.124559 0,0.197219 0,0.07266 0,0.134939 0,0.05709 0,0.12975 0,0.07266 0,0.202409 0.00519,0.12975 0.01038,0.352919 -0.07785,0.01557 -0.1764593,0 -0.03114,-0.275069 -0.09342,-0.394439 -0.06228,-0.124559 -0.1868393,-0.155699 -0.1193696,-0.03114 -0.3425387,-0.03114 H 7.9908445 v 1.074326 q 0,0.160889 0.01038,0.249119 0.01038,0.08823 0.06228,0.140129 0.0519,0.04671 0.1556994,0.06228 0.1089896,0.01557 0.3113988,0.03114 0.01557,0.08304 0,0.166079 -0.1089896,0 -0.264689,-0.0052 -0.1556994,0 -0.3113988,0 -0.1505094,-0.0052 -0.254309,-0.0052 -0.09861,0 -0.243929,0.0052 -0.1453195,0 -0.2958289,0 -0.1453194,0.0052 -0.259499,0.0052 z m 3.3458193,0 q -0.01038,-0.07785 0,-0.166079 0.243929,-0.02595 0.347729,-0.04671 0.103799,-0.02595 0.129749,-0.103799 0.02595,-0.08304 0.02595,-0.264689 v -2.413341 q 0,-0.217979 -0.02595,-0.311399 -0.02595,-0.09342 -0.134939,-0.11937 -0.1038,-0.03114 -0.342539,-0.0519 -0.01038,-0.07785 0,-0.16608 0.134939,0 0.233549,0.0052 0.1038,0 0.207599,0 0.1038,0 0.249119,0.0052 0.14532,0 0.368489,0 0.410008,0 0.768117,0 0.358109,-0.0052 0.596848,-0.0052 0.238739,-0.0052 0.280259,-0.0052 0.02076,0.19203 0.04671,0.394439 0.03114,0.202409 0.06747,0.430768 -0.08823,0.01038 -0.171269,0 -0.06228,-0.155699 -0.14532,-0.275069 -0.08304,-0.119369 -0.171269,-0.181649 -0.09861,-0.07266 -0.238739,-0.10899 -0.13494,-0.03633 -0.337349,-0.03633 h -0.679887 v 1.416865 h 0.285449 q 0.249119,0 0.378868,-0.03114 0.12975,-0.03633 0.19203,-0.150509 0.06228,-0.11937 0.09861,-0.373679 0.09342,-0.01557 0.176459,0 -0.0052,0.311399 -0.01038,0.456718 0,0.14532 0,0.21798 0,0.08304 0,0.254309 0.0052,0.166079 0.01038,0.430768 -0.07785,0.01557 -0.176459,0 -0.03114,-0.275069 -0.09342,-0.394439 -0.06228,-0.119369 -0.186839,-0.150509 -0.119369,-0.03114 -0.342538,-0.03114 h -0.332159 v 1.126226 q 0,0.176459 0,0.285449 0.0052,0.103799 0.01038,0.134939 h 0.711027 q 0.259499,0 0.415198,-0.04152 0.16089,-0.04671 0.264689,-0.134939 0.07266,-0.05709 0.17127,-0.197219 0.09861,-0.14532 0.186839,-0.332159 0.08304,-0.01038 0.160889,0 -0.0519,0.290639 -0.08823,0.524188 -0.03633,0.233549 -0.06228,0.404818 -0.233549,0 -0.508618,0 -0.275069,0 -0.550138,0 -0.275069,-0.0052 -0.503428,-0.0052 -0.223169,0 -0.358109,0 -0.243929,0 -0.399628,0.0052 -0.150509,0 -0.269879,0 -0.11418,0.0052 -0.254309,0.0052 z m 4.280011,0 q -0.01038,-0.07785 0,-0.166079 0.259499,-0.02595 0.368489,-0.04671 0.10899,-0.02595 0.134939,-0.103799 0.02595,-0.07785 0.02595,-0.264689 v -2.83373 h -0.373678 q -0.275069,0 -0.435959,0.07785 -0.155699,0.07266 -0.254309,0.223169 -0.09342,0.15051 -0.186839,0.384059 -0.08304,0.01038 -0.166079,0 0.03114,-0.249119 0.05709,-0.477478 0.03114,-0.228359 0.0519,-0.441149 0.337349,0.02076 0.747358,0.02595 0.410008,0 0.851156,0 0.446339,0 0.856347,0 0.415198,-0.0052 0.747357,-0.02595 0.02076,0.2076 0.04152,0.441149 0.02076,0.228359 0.0519,0.477478 -0.08823,0.01038 -0.17127,0 -0.09861,-0.238739 -0.197219,-0.389249 -0.09861,-0.150509 -0.254309,-0.223169 -0.150509,-0.07266 -0.425578,-0.07266 h -0.368489 v 2.76626 q 0,0.160889 0.01038,0.254309 0.01038,0.09342 0.05709,0.134939 0.0519,0.04152 0.160889,0.06228 0.10899,0.01557 0.301019,0.03114 0.01557,0.08304 0,0.166079 -0.108989,0 -0.264689,-0.0052 -0.150509,0 -0.301019,0 -0.150509,-0.0052 -0.254309,-0.0052 -0.09861,0 -0.249119,0.0052 -0.145319,0 -0.301019,0 -0.150509,0.0052 -0.259499,0.0052 z m 5.416622,-2.911579 -0.762927,1.359775 v 0.903057 q 0,0.160889 0.01038,0.254309 0.01038,0.09342 0.05709,0.134939 0.04671,0.04152 0.15051,0.06228 0.103799,0.01557 0.295829,0.03114 0.01557,0.08304 0,0.166079 -0.10899,0 -0.259499,-0.0052 -0.15051,0 -0.301019,0 -0.14532,-0.0052 -0.243929,-0.0052 -0.09861,0 -0.243929,0.0052 -0.14532,0 -0.295829,0 -0.15051,0.0052 -0.259499,0.0052 -0.01038,-0.07785 0,-0.166079 0.249119,-0.02595 0.358108,-0.04671 0.10899,-0.02595 0.13494,-0.103799 0.02595,-0.08304 0.02595,-0.264689 v -0.918627 l -0.788877,-1.442814 q -0.09342,-0.17646 -0.1557,-0.275069 -0.06228,-0.1038 -0.124559,-0.15051 -0.05709,-0.0519 -0.145319,-0.07266 -0.08304,-0.02076 -0.23355,-0.03633 -0.01038,-0.08304 0,-0.16608 0.18684,0 0.384059,0.0052 0.197219,0.0052 0.389248,0.0052 0.16608,0 0.368489,-0.0052 0.202409,-0.0052 0.389249,-0.0052 0.01038,0.07785 0,0.16608 -0.22317,0.02076 -0.316589,0.0519 -0.09342,0.02595 -0.09342,0.09861 0,0.03633 0.02595,0.09861 0.03114,0.05709 0.07785,0.145319 l 0.679887,1.271545 0.685077,-1.266355 q 0.09342,-0.171269 0.09342,-0.233549 0,-0.07785 -0.108989,-0.1038 -0.1038,-0.03114 -0.363299,-0.06228 -0.01038,-0.08823 0,-0.16608 0.08304,0 0.212789,0.0052 0.12975,0 0.254309,0.0052 0.12975,0 0.212789,0 0.16608,0 0.306209,-0.0052 0.14532,-0.0052 0.306209,-0.0052 0.01038,0.08304 0,0.16608 -0.150509,0.01557 -0.243929,0.03633 -0.09342,0.02076 -0.16089,0.07785 -0.06747,0.0519 -0.140129,0.16089 -0.07266,0.103799 -0.176459,0.290638 z m 5.4668,1.832063 q -0.06228,0.456719 -0.09342,0.929007 -0.285448,0.08304 -0.581277,0.150509 -0.295829,0.06747 -0.633178,0.06747 -0.576088,0 -1.001666,-0.228359 -0.420388,-0.228359 -0.653938,-0.638368 -0.233549,-0.415198 -0.233549,-0.975716 0,-0.565708 0.233549,-0.996476 0.23355,-0.435958 0.659128,-0.679887 0.425578,-0.243929 1.001666,-0.243929 0.212789,0 0.373679,0.02595 0.160889,0.02595 0.389248,0.07785 0.1038,0.02076 0.181649,0.04152 0.07785,0.02076 0.16089,0.02076 0.02595,0 0.05709,0 0.03114,-0.0052 0.0519,-0.01038 0.01038,0.228359 0.02076,0.472288 0.01038,0.243929 0.03114,0.508618 -0.103799,0.01557 -0.176459,0.01038 -0.202409,-0.939386 -1.063946,-0.939386 -0.347729,0 -0.591658,0.140129 -0.243929,0.13494 -0.394438,0.373679 -0.15051,0.233549 -0.217979,0.529378 -0.06747,0.295829 -0.06747,0.617607 0,0.456719 0.134939,0.840777 0.13494,0.384059 0.425579,0.612418 0.290639,0.228359 0.747357,0.228359 0.430768,0 0.685077,-0.228359 0.259499,-0.228359 0.373679,-0.711028 0.04152,0 0.08304,0 0.04671,0 0.09861,0.0052 z m 4.368248,-0.762927 q 0,0.560518 -0.228359,0.991287 -0.22836,0.430768 -0.643558,0.679887 -0.415198,0.243929 -0.980906,0.243929 -0.560518,0 -0.960147,-0.238739 -0.399628,-0.238739 -0.617607,-0.659128 -0.212789,-0.420388 -0.212789,-0.954956 0,-0.555328 0.228359,-0.986096 0.228359,-0.435958 0.643557,-0.679887 0.420389,-0.249119 0.980907,-0.249119 0.555327,0 0.954956,0.238739 0.399628,0.238739 0.617607,0.659127 0.21798,0.415198 0.21798,0.954956 z m -0.643558,0.0519 q 0,-0.316589 -0.06228,-0.617607 -0.06228,-0.301019 -0.202409,-0.544948 -0.134939,-0.243929 -0.358108,-0.384059 -0.22317,-0.145319 -0.544948,-0.145319 -0.326969,0 -0.555328,0.145319 -0.223169,0.14532 -0.363299,0.384059 -0.134939,0.238739 -0.202409,0.534568 -0.06228,0.295828 -0.06228,0.602037 0,0.301019 0.06228,0.602038 0.06747,0.295829 0.207599,0.539758 0.14013,0.243929 0.368489,0.394438 0.233549,0.14532 0.560518,0.14532 0.321778,0 0.539757,-0.14013 0.22317,-0.140129 0.358109,-0.373678 0.13494,-0.238739 0.192029,-0.534568 0.06228,-0.295829 0.06228,-0.607228 z m 4.305963,1.821683 -2.309541,-3.030948 v 2.221311 q 0,0.19722 0.01038,0.306209 0.01038,0.1038 0.06228,0.160889 0.0519,0.0519 0.160889,0.08823 0.10899,0.03633 0.311399,0.05709 0.01038,0.08304 0,0.166079 -0.1557,0 -0.347729,-0.0052 -0.186839,-0.0052 -0.316589,-0.0052 -0.129749,0 -0.321778,0.0052 -0.18684,0.0052 -0.337349,0.0052 -0.01557,-0.07785 0,-0.166079 0.186839,-0.02595 0.290639,-0.04671 0.103799,-0.02595 0.150509,-0.07266 0.04671,-0.0519 0.05709,-0.150509 0.01557,-0.09861 0.01557,-0.275069 V 47.91962 q 0,-0.207599 -0.01557,-0.326969 -0.01038,-0.119369 -0.06747,-0.176459 -0.0519,-0.06228 -0.166079,-0.08823 -0.10899,-0.03114 -0.306209,-0.0519 -0.0052,-0.07785 0,-0.16089 0.160889,0 0.342539,0.0052 0.181649,0.0052 0.363298,0.0052 0.02595,0 0.14013,0 0.119369,0 0.207599,-0.0052 l 2.107132,2.77145 V 47.89886 q 0,-0.197219 -0.01038,-0.306209 -0.0052,-0.108989 -0.06228,-0.160889 -0.108989,-0.114179 -0.524188,-0.145319 -0.01557,-0.08823 0,-0.16608 0.09861,0 0.233549,0.0052 0.14013,0 0.269879,0.0052 0.12975,0 0.212789,0 0.12975,0 0.321779,-0.0052 0.19203,-0.0052 0.342539,-0.0052 0.01038,0.07785 0,0.16089 -0.249119,0.03114 -0.358109,0.07266 -0.108989,0.03633 -0.134939,0.14013 -0.02595,0.103799 -0.02595,0.337349 v 2.932338 q -0.0519,0.01038 -0.14013,0.01557 -0.08823,0.01038 -0.155699,0.01038 z m 2.401237,0.03633 q -0.0052,0 -0.171269,-0.01038 -0.160889,-0.0052 -0.373679,-0.04152 -0.176459,-0.03114 -0.321778,-0.04152 -0.14013,-0.01557 -0.17127,-0.01557 -0.0052,-0.430768 -0.04671,-1.043186 0.04152,-0.0052 0.08304,-0.0052 0.04671,0 0.08304,0 0.09861,0.456719 0.326969,0.705838 0.233549,0.249119 0.612417,0.249119 0.337349,0 0.550138,-0.181649 0.212789,-0.18684 0.212789,-0.487859 0,-0.228359 -0.119369,-0.373678 -0.11418,-0.14532 -0.306209,-0.243929 -0.186839,-0.1038 -0.399629,-0.19203 -0.249119,-0.108989 -0.477478,-0.228359 -0.223169,-0.124559 -0.368488,-0.316588 -0.14532,-0.19203 -0.14532,-0.498238 0,-0.326969 0.16089,-0.560518 0.166079,-0.233549 0.441148,-0.352919 0.275069,-0.124559 0.607228,-0.124559 0.103799,0 0.212789,0.01038 0.114179,0.01038 0.233549,0.03114 0.150509,0.02076 0.228359,0.02595 0.08304,0.0052 0.10899,0.0052 0.01557,0 0.05709,0 0.04152,-0.0052 0.06747,-0.01038 0.01038,0.228359 0.02076,0.472288 0.01038,0.24393 0.03114,0.508618 -0.1038,0.01557 -0.171269,0.01038 -0.11937,-0.451528 -0.295829,-0.648747 -0.17646,-0.202409 -0.503428,-0.202409 -0.285449,0 -0.487859,0.155699 -0.202409,0.15051 -0.202409,0.451528 0,0.16089 0.07266,0.285449 0.07785,0.12456 0.254309,0.238739 0.176459,0.11418 0.487858,0.243929 0.171269,0.07266 0.342539,0.16089 0.176459,0.08823 0.321779,0.212789 0.145319,0.11937 0.233549,0.295829 0.08823,0.171269 0.08823,0.410008 0,0.352919 -0.176459,0.602038 -0.176459,0.243929 -0.467098,0.373679 -0.285449,0.129749 -0.633178,0.129749 z m 1.762881,-3.710836 q 0.1038,0 0.249119,0.0052 0.15051,0 0.295829,0.0052 0.150509,0 0.249119,0 0.09861,0 0.243929,0 0.15051,-0.0052 0.301019,-0.0052 0.150509,-0.0052 0.254309,-0.0052 0.01557,0.07785 0,0.16089 -0.238739,0.02076 -0.347729,0.04671 -0.108989,0.02595 -0.134939,0.103799 -0.02595,0.07785 -0.02595,0.264689 v 1.697124 q 0,0.581277 0.249119,0.866726 0.254309,0.280259 0.736977,0.280259 0.508618,0 0.768117,-0.316589 0.259499,-0.316588 0.259499,-0.980906 v -1.422054 q 0,-0.18165 -0.01557,-0.280259 -0.01038,-0.1038 -0.06747,-0.15051 -0.0519,-0.04671 -0.16089,-0.06228 -0.108989,-0.02076 -0.306209,-0.04152 -0.01557,-0.07785 0,-0.16089 0.14013,0 0.337349,0.0052 0.197219,0.0052 0.316589,0.0052 0.129749,0 0.321779,-0.0052 0.197219,-0.0052 0.342538,-0.0052 0.01557,0.07785 0,0.16089 -0.238739,0.02595 -0.347728,0.0519 -0.10899,0.02595 -0.14013,0.11418 -0.02595,0.08823 -0.02595,0.301019 v 1.598514 q 0,0.690267 -0.358108,1.079516 -0.358109,0.384058 -1.084706,0.384058 -0.415199,0 -0.731787,-0.134939 -0.311399,-0.13494 -0.487859,-0.415199 -0.176459,-0.285449 -0.176459,-0.716217 v -1.785353 q 0,-0.217979 -0.02595,-0.311399 -0.02595,-0.09342 -0.134939,-0.11937 -0.10899,-0.03114 -0.352919,-0.0519 -0.01557,-0.07785 0,-0.16089 z m 4.259254,3.643366 q -0.01038,-0.07785 0,-0.166079 0.243929,-0.02595 0.347729,-0.04671 0.1038,-0.02595 0.129749,-0.103799 0.02595,-0.08304 0.02595,-0.264689 v -2.413341 q 0,-0.217979 -0.02595,-0.311399 -0.02595,-0.09342 -0.134939,-0.11937 -0.1038,-0.03114 -0.342539,-0.0519 -0.01038,-0.07785 0,-0.16608 0.10899,0 0.254309,0.0052 0.15051,0 0.295829,0.0052 0.14532,0 0.238739,0 0.09861,0 0.243929,0 0.15051,-0.0052 0.301019,-0.0052 0.1557,-0.0052 0.254309,-0.0052 0.01557,0.07785 0,0.16608 -0.243929,0.02076 -0.352918,0.04671 -0.10899,0.02595 -0.13494,0.1038 -0.02595,0.07785 -0.02595,0.264689 v 2.413341 q 0,0.176459 0,0.285449 0.0052,0.103799 0.01038,0.140129 h 0.736977 q 0.430769,0 0.638368,-0.192029 0.171269,-0.166079 0.358108,-0.581278 0.08304,-0.01557 0.16089,0 -0.06228,0.316589 -0.1038,0.570898 -0.03633,0.249119 -0.06228,0.420388 -0.503428,0 -1.006856,0 -0.498238,-0.0052 -1.001666,-0.0052 -0.09861,0 -0.249119,0.0052 -0.150509,0 -0.301019,0 -0.150509,0.0052 -0.254309,0.0052 z m 3.755823,0 q -0.01038,-0.07785 0,-0.166079 0.259499,-0.02595 0.368488,-0.04671 0.10899,-0.02595 0.13494,-0.103799 0.02595,-0.07785 0.02595,-0.264689 v -2.83373 h -0.373679 q -0.275069,0 -0.435958,0.07785 -0.1557,0.07266 -0.254309,0.223169 -0.09342,0.15051 -0.186839,0.384059 -0.08304,0.01038 -0.16608,0 0.03114,-0.249119 0.05709,-0.477478 0.03114,-0.228359 0.0519,-0.441149 0.337348,0.02076 0.747357,0.02595 0.410008,0 0.851157,0 0.446338,0 0.856346,0 0.415199,-0.0052 0.747357,-0.02595 0.02076,0.2076 0.04152,0.441149 0.02076,0.228359 0.0519,0.477478 -0.08823,0.01038 -0.171269,0 -0.09861,-0.238739 -0.19722,-0.389249 -0.09861,-0.150509 -0.254309,-0.223169 -0.150509,-0.07266 -0.425578,-0.07266 h -0.368488 v 2.76626 q 0,0.160889 0.01038,0.254309 0.01038,0.09342 0.05709,0.134939 0.0519,0.04152 0.16089,0.06228 0.108989,0.01557 0.301018,0.03114 0.01557,0.08304 0,0.166079 -0.108989,0 -0.264689,-0.0052 -0.150509,0 -0.301018,0 -0.15051,-0.0052 -0.254309,-0.0052 -0.09861,0 -0.249119,0.0052 -0.14532,0 -0.301019,0 -0.15051,0.0052 -0.259499,0.0052 z m 2.255925,0 q -0.01038,-0.08304 0,-0.166079 0.14532,-0.01557 0.233549,-0.03633 0.08823,-0.02076 0.15051,-0.07266 0.06228,-0.05709 0.119369,-0.166079 0.05709,-0.11418 0.13494,-0.316589 l 1.121036,-2.875249 q 0.05709,-0.02076 0.134939,-0.03114 0.08304,-0.01038 0.140129,-0.01038 l 1.115846,2.963479 q 0.07266,0.186839 0.11937,0.295829 0.04671,0.103799 0.103799,0.150509 0.05709,0.04671 0.14532,0.06747 0.08823,0.01557 0.243929,0.03114 0.01038,0.08304 0,0.166079 -0.181649,0 -0.373679,-0.0052 -0.192029,-0.0052 -0.384058,-0.0052 -0.197219,0 -0.399629,0.0052 -0.197219,0.0052 -0.394438,0.0052 -0.01557,-0.07785 0,-0.166079 0.254309,-0.02595 0.352918,-0.04671 0.09861,-0.02595 0.09861,-0.124559 0,-0.04152 -0.01557,-0.09342 -0.01557,-0.0519 -0.04152,-0.12975 L 50.185515,49.398765 H 49.01777 l -0.259499,0.716217 q -0.03633,0.09861 -0.05709,0.166079 -0.01557,0.06228 -0.01557,0.11418 0,0.114179 0.1038,0.145319 0.108989,0.02595 0.352918,0.0519 0.01038,0.08823 0,0.166079 -0.176459,0 -0.347728,-0.0052 -0.17127,-0.0052 -0.347729,-0.0052 -0.145319,0 -0.280259,0.0052 -0.134939,0.0052 -0.290639,0.0052 z m 1.219646,-1.577754 h 1.012046 l -0.508618,-1.380534 z m 5.847391,1.608894 -2.309541,-3.030948 v 2.221311 q 0,0.19722 0.01038,0.306209 0.01038,0.1038 0.06228,0.160889 0.0519,0.0519 0.160889,0.08823 0.10899,0.03633 0.311399,0.05709 0.01038,0.08304 0,0.166079 -0.155699,0 -0.347729,-0.0052 -0.186839,-0.0052 -0.316588,-0.0052 -0.12975,0 -0.321779,0.0052 -0.186839,0.0052 -0.337349,0.0052 -0.01557,-0.07785 0,-0.166079 0.186839,-0.02595 0.290639,-0.04671 0.1038,-0.02595 0.150509,-0.07266 0.04671,-0.0519 0.05709,-0.150509 0.01557,-0.09861 0.01557,-0.275069 V 47.91962 q 0,-0.207599 -0.01557,-0.326969 -0.01038,-0.119369 -0.06747,-0.176459 -0.0519,-0.06228 -0.166079,-0.08823 -0.108989,-0.03114 -0.306209,-0.0519 -0.0052,-0.07785 0,-0.16089 0.16089,0 0.342539,0.0052 0.181649,0.0052 0.363299,0.0052 0.02595,0 0.140129,0 0.11937,0 0.207599,-0.0052 l 2.107132,2.77145 V 47.89886 q 0,-0.197219 -0.01038,-0.306209 -0.0052,-0.108989 -0.06228,-0.160889 -0.108989,-0.114179 -0.524188,-0.145319 -0.01557,-0.08823 0,-0.16608 0.09861,0 0.23355,0.0052 0.140129,0 0.269879,0.0052 0.129749,0 0.212789,0 0.129749,0 0.321778,-0.0052 0.19203,-0.0052 0.342539,-0.0052 0.01038,0.07785 0,0.16089 -0.249119,0.03114 -0.358108,0.07266 -0.10899,0.03633 -0.13494,0.14013 -0.02595,0.103799 -0.02595,0.337349 v 2.932338 q -0.0519,0.01038 -0.140129,0.01557 -0.08823,0.01038 -0.1557,0.01038 z m 4.529131,-1.110656 q -0.06228,0.456719 -0.09342,0.929007 -0.285449,0.08304 -0.581278,0.150509 -0.295829,0.06747 -0.633178,0.06747 -0.576088,0 -1.001666,-0.228359 -0.420388,-0.228359 -0.653937,-0.638368 -0.23355,-0.415198 -0.23355,-0.975716 0,-0.565708 0.23355,-0.996476 0.233549,-0.435958 0.659127,-0.679887 0.425578,-0.243929 1.001666,-0.243929 0.212789,0 0.373679,0.02595 0.160889,0.02595 0.389248,0.07785 0.1038,0.02076 0.18165,0.04152 0.07785,0.02076 0.160889,0.02076 0.02595,0 0.05709,0 0.03114,-0.0052 0.0519,-0.01038 0.01038,0.228359 0.02076,0.472288 0.01038,0.243929 0.03114,0.508618 -0.103799,0.01557 -0.176459,0.01038 -0.202409,-0.939386 -1.063946,-0.939386 -0.347729,0 -0.591658,0.140129 -0.243929,0.13494 -0.394438,0.373679 -0.15051,0.233549 -0.217979,0.529378 -0.06747,0.295829 -0.06747,0.617607 0,0.456719 0.134939,0.840777 0.13494,0.384059 0.425579,0.612418 0.290639,0.228359 0.747357,0.228359 0.430768,0 0.685077,-0.228359 0.259499,-0.228359 0.373679,-0.711028 0.04152,0 0.08304,0 0.04671,0 0.09861,0.0052 z m 3.122653,-1.832063 -0.762927,1.359775 v 0.903057 q 0,0.160889 0.01038,0.254309 0.01038,0.09342 0.05709,0.134939 0.04671,0.04152 0.15051,0.06228 0.103799,0.01557 0.295829,0.03114 0.01557,0.08304 0,0.166079 -0.10899,0 -0.259499,-0.0052 -0.15051,0 -0.301019,0 -0.14532,-0.0052 -0.243929,-0.0052 -0.09861,0 -0.243929,0.0052 -0.14532,0 -0.295829,0 -0.15051,0.0052 -0.259499,0.0052 -0.01038,-0.07785 0,-0.166079 0.249119,-0.02595 0.358108,-0.04671 0.10899,-0.02595 0.13494,-0.103799 0.02595,-0.08304 0.02595,-0.264689 v -0.918627 l -0.788877,-1.442814 q -0.09342,-0.17646 -0.1557,-0.275069 -0.06228,-0.1038 -0.124559,-0.15051 -0.05709,-0.0519 -0.14532,-0.07266 -0.08304,-0.02076 -0.233549,-0.03633 -0.01038,-0.08304 0,-0.16608 0.18684,0 0.384059,0.0052 0.197219,0.0052 0.389248,0.0052 0.16608,0 0.368489,-0.0052 0.202409,-0.0052 0.389248,-0.0052 0.01038,0.07785 0,0.16608 -0.223169,0.02076 -0.316588,0.0519 -0.09342,0.02595 -0.09342,0.09861 0,0.03633 0.02595,0.09861 0.03114,0.05709 0.07785,0.145319 l 0.679887,1.271545 0.685077,-1.266355 q 0.09342,-0.171269 0.09342,-0.233549 0,-0.07785 -0.10899,-0.1038 -0.103799,-0.03114 -0.363298,-0.06228 -0.01038,-0.08823 0,-0.16608 0.08304,0 0.212789,0.0052 0.129749,0 0.254309,0.0052 0.129749,0 0.212789,0 0.16608,0 0.306209,-0.0052 0.145319,-0.0052 0.306209,-0.0052 0.01038,0.08304 0,0.16608 -0.15051,0.01557 -0.243929,0.03633 -0.09342,0.02076 -0.16089,0.07785 -0.06747,0.0519 -0.140129,0.16089 -0.07266,0.103799 -0.176459,0.290638 z"
     id="text1"
     aria-label="SAFETY CONSULTANCY" />
  <path
     style="fill:#000000;fill-opacity:1;stroke:none;stroke-width:0.0670962;stroke-dasharray:none"
     d="m 30.924053,26.030197 c -2.548326,-0.185099 -5.188936,-1.267879 -6.159772,-2.08835 -0.179585,-0.15177 -0.07452,-0.28944 0.630435,-0.827061 4.03176,-3.150484 0.51765,-0.368709 5.358986,-4.119055 1.181987,-0.915626 1.628165,-1.244832 1.945387,-1.435364 0.669089,-0.401878 1.992926,-0.964338 2.817454,-1.197045 1.3972,-0.451527 2.844482,-0.659301 4.293269,-0.851168 0.666808,-0.08921 2.763516,-0.170017 3.801325,-0.169983 l 1.033121,3.4e-5 c -0.04554,0.381093 -0.129139,0.838515 -0.342737,1.504869 -0.575602,1.795747 -1.276147,3.129203 -2.839945,4.964087 -2.757608,2.93471 -6.546674,4.508911 -10.537523,4.219036 z M 18.784941,12.852336 c -0.03318,-0.08638 0.09679,-1.278623 0.211064,-1.936727 0.259418,-1.4939237 0.763597,-3.0152187 1.329776,-4.0123687 0.333566,-0.587487 0.529995,-0.910219 0.762148,-1.252203 5.238415,-7.7169205 16.94246,-7.4880551 21.850888,0.427282 1.21193,1.954362 2.149204,5.0985747 1.985632,6.6610757 l -0.01639,0.156525 -13.048875,0.01126 c -11.478631,0.0099 -13.051924,0.0033 -13.07424,-0.05484 z"
     id="path1-3"
     sodipodi:nodetypes="sssssssscscssssssscss" />
</svg>
